<mxfile host="Electron" agent="Mozilla/5.0 (Windows NT 10.0; Win64; x64) AppleWebKit/537.36 (KHTML, like Gecko) draw.io/27.0.9 Chrome/134.0.6998.205 Electron/35.4.0 Safari/537.36" version="27.0.9">
  <diagram name="AOA Diagram CPM" id="0">
    <mxGraphModel dx="3976" dy="1941" grid="0" gridSize="10" guides="0" tooltips="1" connect="1" arrows="1" fold="1" page="1" pageScale="1" pageWidth="850" pageHeight="1100" math="0" shadow="0">
      <root>
        <mxCell id="0" />
        <mxCell id="1" parent="0" />
        <mxCell id="1535c3fb" value="1" style="ellipse;whiteSpace=wrap;html=1;aspect=fixed;" parent="1" vertex="1">
          <mxGeometry x="-2490" y="480" width="60" height="60" as="geometry" />
        </mxCell>
        <mxCell id="b6da56d0" value="2" style="ellipse;whiteSpace=wrap;html=1;aspect=fixed;" parent="1" vertex="1">
          <mxGeometry x="-2180" y="300" width="60" height="60" as="geometry" />
        </mxCell>
        <mxCell id="eaca8680" value="3" style="ellipse;whiteSpace=wrap;html=1;aspect=fixed;" parent="1" vertex="1">
          <mxGeometry x="-2190" y="540" width="60" height="60" as="geometry" />
        </mxCell>
        <mxCell id="7493ef86" value="6" style="ellipse;whiteSpace=wrap;html=1;aspect=fixed;" parent="1" vertex="1">
          <mxGeometry x="-1450" y="50" width="60" height="60" as="geometry" />
        </mxCell>
        <mxCell id="ffbde519" value="11" style="ellipse;whiteSpace=wrap;html=1;aspect=fixed;" parent="1" vertex="1">
          <mxGeometry x="-1440" y="200" width="60" height="60" as="geometry" />
        </mxCell>
        <mxCell id="408cdb30" value="26" style="ellipse;whiteSpace=wrap;html=1;aspect=fixed;" parent="1" vertex="1">
          <mxGeometry x="-1443" y="335" width="60" height="60" as="geometry" />
        </mxCell>
        <mxCell id="544a1524" value="28" style="ellipse;whiteSpace=wrap;html=1;aspect=fixed;" parent="1" vertex="1">
          <mxGeometry x="-1441" y="512" width="60" height="60" as="geometry" />
        </mxCell>
        <mxCell id="7f615a20" value="4" style="ellipse;whiteSpace=wrap;html=1;aspect=fixed;" parent="1" vertex="1">
          <mxGeometry x="-1970" y="430" width="60" height="60" as="geometry" />
        </mxCell>
        <mxCell id="ede9ca6e" value="7" style="ellipse;whiteSpace=wrap;html=1;aspect=fixed;" parent="1" vertex="1">
          <mxGeometry x="-1970" y="540" width="60" height="60" as="geometry" />
        </mxCell>
        <mxCell id="00ddc8a9" value="8" style="ellipse;whiteSpace=wrap;html=1;aspect=fixed;" parent="1" vertex="1">
          <mxGeometry x="-1950" y="770" width="60" height="60" as="geometry" />
        </mxCell>
        <mxCell id="c5eb1156" value="9" style="ellipse;whiteSpace=wrap;html=1;aspect=fixed;" parent="1" vertex="1">
          <mxGeometry x="-2020" y="990" width="60" height="60" as="geometry" />
        </mxCell>
        <mxCell id="14219ada" value="14" style="ellipse;whiteSpace=wrap;html=1;aspect=fixed;" parent="1" vertex="1">
          <mxGeometry x="-1260" y="200" width="60" height="60" as="geometry" />
        </mxCell>
        <mxCell id="1711f812" value="5" style="ellipse;whiteSpace=wrap;html=1;aspect=fixed;" parent="1" vertex="1">
          <mxGeometry x="-1750" y="200" width="60" height="60" as="geometry" />
        </mxCell>
        <mxCell id="ee80a6a2" value="12" style="ellipse;whiteSpace=wrap;html=1;aspect=fixed;" parent="1" vertex="1">
          <mxGeometry x="-1970" y="200" width="60" height="60" as="geometry" />
        </mxCell>
        <mxCell id="026faeb7" value="29" style="ellipse;whiteSpace=wrap;html=1;aspect=fixed;" parent="1" vertex="1">
          <mxGeometry x="-1820" y="430" width="60" height="60" as="geometry" />
        </mxCell>
        <mxCell id="66668499" value="10" style="ellipse;whiteSpace=wrap;html=1;aspect=fixed;" parent="1" vertex="1">
          <mxGeometry x="-1690" y="770" width="60" height="60" as="geometry" />
        </mxCell>
        <mxCell id="00f033ac" value="15" style="ellipse;whiteSpace=wrap;html=1;aspect=fixed;" parent="1" vertex="1">
          <mxGeometry x="-1070" y="200" width="60" height="60" as="geometry" />
        </mxCell>
        <mxCell id="21505091" value="30" style="ellipse;whiteSpace=wrap;html=1;aspect=fixed;" parent="1" vertex="1">
          <mxGeometry x="-1650" y="430" width="60" height="60" as="geometry" />
        </mxCell>
        <mxCell id="369b07a7" value="13" style="ellipse;whiteSpace=wrap;html=1;aspect=fixed;" parent="1" vertex="1">
          <mxGeometry x="-1460" y="770" width="60" height="60" as="geometry" />
        </mxCell>
        <mxCell id="4c62da6e" value="16" style="ellipse;whiteSpace=wrap;html=1;aspect=fixed;" parent="1" vertex="1">
          <mxGeometry x="-840" y="200" width="60" height="60" as="geometry" />
        </mxCell>
        <mxCell id="fa4f8f45" value="17" style="ellipse;whiteSpace=wrap;html=1;aspect=fixed;" parent="1" vertex="1">
          <mxGeometry x="-1240" y="770" width="60" height="60" as="geometry" />
        </mxCell>
        <mxCell id="c6145eef" value="18" style="ellipse;whiteSpace=wrap;html=1;aspect=fixed;" parent="1" vertex="1">
          <mxGeometry x="-1000" y="960" width="60" height="60" as="geometry" />
        </mxCell>
        <mxCell id="e268c06f" value="19" style="ellipse;whiteSpace=wrap;html=1;aspect=fixed;" parent="1" vertex="1">
          <mxGeometry x="-970" y="770" width="60" height="60" as="geometry" />
        </mxCell>
        <mxCell id="c735d2ee" value="20" style="ellipse;whiteSpace=wrap;html=1;aspect=fixed;" parent="1" vertex="1">
          <mxGeometry x="-780" y="770" width="60" height="60" as="geometry" />
        </mxCell>
        <mxCell id="434c6c4c" value="21" style="ellipse;whiteSpace=wrap;html=1;aspect=fixed;" parent="1" vertex="1">
          <mxGeometry x="-968" y="551" width="60" height="60" as="geometry" />
        </mxCell>
        <mxCell id="66e3b4fe" value="22" style="ellipse;whiteSpace=wrap;html=1;aspect=fixed;" parent="1" vertex="1">
          <mxGeometry x="-580" y="770" width="60" height="60" as="geometry" />
        </mxCell>
        <mxCell id="a40b6437" value="23" style="ellipse;whiteSpace=wrap;html=1;aspect=fixed;" parent="1" vertex="1">
          <mxGeometry x="-580" y="920" width="60" height="60" as="geometry" />
        </mxCell>
        <mxCell id="8e10d64b" value="24" style="ellipse;whiteSpace=wrap;html=1;aspect=fixed;" parent="1" vertex="1">
          <mxGeometry x="-380" y="920" width="60" height="60" as="geometry" />
        </mxCell>
        <mxCell id="75304edf" value="25" style="ellipse;whiteSpace=wrap;html=1;aspect=fixed;" parent="1" vertex="1">
          <mxGeometry x="-200" y="920" width="60" height="60" as="geometry" />
        </mxCell>
        <mxCell id="4072c6d1" value="27" style="ellipse;whiteSpace=wrap;html=1;aspect=fixed;" parent="1" vertex="1">
          <mxGeometry x="-10" y="920" width="60" height="60" as="geometry" />
        </mxCell>
        <mxCell id="a0f82ed6" value="31" style="ellipse;whiteSpace=wrap;html=1;aspect=fixed;" parent="1" vertex="1">
          <mxGeometry x="160" y="920" width="60" height="60" as="geometry" />
        </mxCell>
        <mxCell id="84bad9c0" value="32" style="ellipse;whiteSpace=wrap;html=1;aspect=fixed;" parent="1" vertex="1">
          <mxGeometry x="330" y="920" width="60" height="60" as="geometry" />
        </mxCell>
        <mxCell id="3da8a38b" value="33" style="ellipse;whiteSpace=wrap;html=1;aspect=fixed;" parent="1" vertex="1">
          <mxGeometry x="510" y="920" width="60" height="60" as="geometry" />
        </mxCell>
        <mxCell id="9174d206" value="A = 1" style="endArrow=block;strokeColor=light-dark(#FF0000,#FF0000);" parent="1" source="1535c3fb" target="b6da56d0" edge="1">
          <mxGeometry relative="1" as="geometry" />
        </mxCell>
        <mxCell id="d92fa8fe" value="B = 1" style="endArrow=block;strokeColor=light-dark(#FF0000,#FF0000);exitX=0.983;exitY=0.75;exitDx=0;exitDy=0;exitPerimeter=0;fillColor=light-dark(transparent,#FFFFFF);" parent="1" source="1535c3fb" target="eaca8680" edge="1">
          <mxGeometry relative="1" as="geometry">
            <mxPoint x="-1521.2434648797762" y="733.0579260819402" as="sourcePoint" />
          </mxGeometry>
        </mxCell>
        <mxCell id="57eb1877" value="C = 1" style="endArrow=block;strokeColor=light-dark(#FF0000,#FFFFFF);fillColor=light-dark(transparent,#FFFFFF);" parent="1" source="eaca8680" target="7f615a20" edge="1">
          <mxGeometry relative="1" as="geometry" />
        </mxCell>
        <mxCell id="57141125" value="F = 1" style="endArrow=block;strokeColor=light-dark(#FF0000,#FFFFFF);fillColor=light-dark(transparent,#FFFFFF);" parent="1" source="eaca8680" target="ede9ca6e" edge="1">
          <mxGeometry relative="1" as="geometry">
            <Array as="points" />
          </mxGeometry>
        </mxCell>
        <mxCell id="7b70e65a" value="G = 1" style="endArrow=block;strokeColor=light-dark(#FF0000,#FFFFFF);fillColor=light-dark(transparent,#FFFFFF);" parent="1" source="eaca8680" target="00ddc8a9" edge="1">
          <mxGeometry relative="1" as="geometry" />
        </mxCell>
        <mxCell id="cbeea0dd" value="H = 14" style="endArrow=block;strokeColor=light-dark(#FF0000,#FF0000);fillColor=light-dark(transparent,#FFFFFF);" parent="1" source="eaca8680" target="c5eb1156" edge="1">
          <mxGeometry relative="1" as="geometry" />
        </mxCell>
        <mxCell id="e8506038" value="E = 1" style="endArrow=block;strokeColor=light-dark(#FF0000,#FFFFFF);fillColor=light-dark(transparent,#FFFFFF);" parent="1" source="1711f812" target="7493ef86" edge="1">
          <mxGeometry x="-0.0035" relative="1" as="geometry">
            <mxPoint x="-1730.3488490704676" y="205.43828447237956" as="sourcePoint" />
            <mxPoint as="offset" />
          </mxGeometry>
        </mxCell>
        <mxCell id="499eed27" value="J = 1" style="endArrow=block;strokeColor=light-dark(#FF0000,#FFFFFF);exitX=1;exitY=0.5;exitDx=0;exitDy=0;fillColor=light-dark(transparent,#FFFFFF);" parent="1" source="1711f812" target="ffbde519" edge="1">
          <mxGeometry relative="1" as="geometry">
            <mxPoint x="-1600.0000000000136" y="260" as="sourcePoint" />
          </mxGeometry>
        </mxCell>
        <mxCell id="ecaaabc6" value="M = 1" style="endArrow=block;strokeColor=light-dark(#FF0000,#FFFFFF);fillColor=light-dark(transparent,#FFFFFF);" parent="1" source="ffbde519" target="14219ada" edge="1">
          <mxGeometry relative="1" as="geometry" />
        </mxCell>
        <mxCell id="1ee3c325" value="Y = 7" style="endArrow=block;strokeColor=light-dark(#FF0000,#FFFFFF);exitX=1;exitY=1;exitDx=0;exitDy=0;fillColor=light-dark(transparent,#FFFFFF);" parent="1" source="1711f812" target="408cdb30" edge="1">
          <mxGeometry relative="1" as="geometry">
            <mxPoint x="-1814.54991576968" y="355.88374051254027" as="sourcePoint" />
          </mxGeometry>
        </mxCell>
        <mxCell id="c8349c84" value="AA = 1" style="endArrow=block;strokeColor=light-dark(#FF0000,#FFFFFF);exitX=0.5;exitY=1;exitDx=0;exitDy=0;fillColor=light-dark(transparent,#FFFFFF);" parent="1" source="1711f812" target="544a1524" edge="1">
          <mxGeometry relative="1" as="geometry">
            <mxPoint x="-1220" y="440" as="sourcePoint" />
          </mxGeometry>
        </mxCell>
        <mxCell id="f7532dca" value="D = 1" style="endArrow=block;strokeColor=light-dark(#FF0000,#FFFFFF);fillColor=light-dark(transparent,#FFFFFF);" parent="1" source="7f615a20" target="1711f812" edge="1">
          <mxGeometry x="-0.085" y="11" relative="1" as="geometry">
            <mxPoint y="-1" as="offset" />
          </mxGeometry>
        </mxCell>
        <mxCell id="a841703d" value="K = 1" style="endArrow=block;strokeColor=light-dark(#FF0000,#FFFFFF);fillColor=light-dark(transparent,#FFFFFF);" parent="1" source="7f615a20" target="ee80a6a2" edge="1">
          <mxGeometry relative="1" as="geometry" />
        </mxCell>
        <mxCell id="13626984" value="AB = 1" style="endArrow=block;strokeColor=light-dark(#FF0000,#FFFFFF);fillColor=light-dark(transparent,#FFFFFF);" parent="1" source="7f615a20" target="026faeb7" edge="1">
          <mxGeometry relative="1" as="geometry" />
        </mxCell>
        <mxCell id="673fcda5" value="I = 1" style="endArrow=block;strokeColor=light-dark(#FF0000,#FF0000);fillColor=light-dark(transparent,#FFFFFF);" parent="1" source="00ddc8a9" target="66668499" edge="1">
          <mxGeometry relative="1" as="geometry" />
        </mxCell>
        <mxCell id="a3e7e7ff" value="N = 1" style="endArrow=block;strokeColor=light-dark(#FF0000,#FFFFFF);fillColor=light-dark(transparent,#FFFFFF);" parent="1" source="14219ada" target="00f033ac" edge="1">
          <mxGeometry relative="1" as="geometry">
            <Array as="points" />
          </mxGeometry>
        </mxCell>
        <mxCell id="afc112b3" value="AC = 4" style="endArrow=block;strokeColor=light-dark(#FF0000,#FFFFFF);fillColor=light-dark(transparent,#FFFFFF);" parent="1" source="026faeb7" target="21505091" edge="1">
          <mxGeometry relative="1" as="geometry" />
        </mxCell>
        <mxCell id="331bc83c" value="L = 1" style="endArrow=block;strokeColor=light-dark(#FF0000,#FF0000);fillColor=light-dark(transparent,#FFFFFF);" parent="1" source="66668499" target="369b07a7" edge="1">
          <mxGeometry relative="1" as="geometry" />
        </mxCell>
        <mxCell id="5c44f803" value="O = 1" style="endArrow=block;strokeColor=light-dark(#FF0000,#FFFFFF);fillColor=light-dark(transparent,#FFFFFF);" parent="1" source="00f033ac" target="4c62da6e" edge="1">
          <mxGeometry relative="1" as="geometry" />
        </mxCell>
        <mxCell id="835d7443" value="P = 14" style="endArrow=block;strokeColor=light-dark(#FF0000,#FF0000);fillColor=light-dark(transparent,#FFFFFF);" parent="1" source="369b07a7" target="fa4f8f45" edge="1">
          <mxGeometry relative="1" as="geometry" />
        </mxCell>
        <mxCell id="9ee9b317" value="Q = 2" style="endArrow=block;strokeColor=light-dark(#FF0000,#FF0000);fillColor=light-dark(transparent,#FFFFFF);" parent="1" source="fa4f8f45" target="c6145eef" edge="1">
          <mxGeometry relative="1" as="geometry" />
        </mxCell>
        <mxCell id="fd9033dc" value="R = 2" style="endArrow=block;strokeColor=light-dark(#FF0000,#FF0000);fillColor=light-dark(transparent,#FFFFFF);" parent="1" source="fa4f8f45" target="e268c06f" edge="1">
          <mxGeometry relative="1" as="geometry" />
        </mxCell>
        <mxCell id="0e6d2952" value="S = 14" style="endArrow=block;strokeColor=light-dark(#FF0000,#FF0000);fillColor=light-dark(transparent,#FFFFFF);" parent="1" source="e268c06f" target="c735d2ee" edge="1">
          <mxGeometry relative="1" as="geometry" />
        </mxCell>
        <mxCell id="687ff69f" value="T = 2" style="endArrow=block;strokeColor=light-dark(#FF0000,#FFFFFF);fillColor=light-dark(transparent,#FFFFFF);" parent="1" source="e268c06f" target="434c6c4c" edge="1">
          <mxGeometry relative="1" as="geometry" />
        </mxCell>
        <mxCell id="0b8aa6fb" value="U = 3" style="endArrow=block;strokeColor=light-dark(#FF0000,#FFFFFF);fillColor=light-dark(transparent,#FFFFFF);" parent="1" source="c735d2ee" target="66e3b4fe" edge="1">
          <mxGeometry relative="1" as="geometry" />
        </mxCell>
        <mxCell id="19883fe9" value="V = 4" style="endArrow=block;strokeColor=light-dark(#FF0000,#FF0000);fillColor=light-dark(transparent,#FFFFFF);" parent="1" source="c735d2ee" target="a40b6437" edge="1">
          <mxGeometry relative="1" as="geometry" />
        </mxCell>
        <mxCell id="b74d8805" value="W = 1" style="endArrow=block;strokeColor=light-dark(#FF0000,#FF0000);fillColor=light-dark(transparent,#FFFFFF);" parent="1" source="a40b6437" target="8e10d64b" edge="1">
          <mxGeometry relative="1" as="geometry" />
        </mxCell>
        <mxCell id="6d783404" value="X = 1" style="endArrow=block;strokeColor=light-dark(#FF0000,#FF0000);fillColor=light-dark(transparent,#FFFFFF);" parent="1" source="8e10d64b" target="75304edf" edge="1">
          <mxGeometry relative="1" as="geometry" />
        </mxCell>
        <mxCell id="18e23232" value="Z = 2" style="endArrow=block;strokeColor=light-dark(#FF0000,#FF0000);fillColor=light-dark(transparent,#FFFFFF);" parent="1" source="75304edf" target="4072c6d1" edge="1">
          <mxGeometry relative="1" as="geometry" />
        </mxCell>
        <mxCell id="90a982f5" value="AD = 5" style="endArrow=block;strokeColor=light-dark(#FF0000,#FF0000);fillColor=light-dark(transparent,#FFFFFF);" parent="1" source="4072c6d1" target="a0f82ed6" edge="1">
          <mxGeometry relative="1" as="geometry" />
        </mxCell>
        <mxCell id="89d57a41" value="AE = 1" style="endArrow=block;strokeColor=light-dark(#FF0000,#FF0000);fillColor=light-dark(transparent,#FFFFFF);" parent="1" source="a0f82ed6" target="84bad9c0" edge="1">
          <mxGeometry relative="1" as="geometry" />
        </mxCell>
        <mxCell id="d8d4406c" value="AF = 1" style="endArrow=block;strokeColor=light-dark(#FF0000,#FF0000);fillColor=light-dark(transparent,#FFFFFF);" parent="1" source="84bad9c0" target="3da8a38b" edge="1">
          <mxGeometry relative="1" as="geometry" />
        </mxCell>
        <mxCell id="IxiCXeLM7wotUFH8ig7V-98852866" style="edgeStyle=orthogonalEdgeStyle;rounded=0;orthogonalLoop=1;jettySize=auto;html=1;exitX=0.5;exitY=1;exitDx=0;exitDy=0;" parent="1" edge="1">
          <mxGeometry relative="1" as="geometry">
            <mxPoint x="-1540" y="760" as="sourcePoint" />
            <mxPoint x="-1540" y="760" as="targetPoint" />
          </mxGeometry>
        </mxCell>
        <mxCell id="Fv-TLhSwu86ZR0lVzaZN-66668499" value="T1 = 0&lt;div&gt;T2 = 0&lt;/div&gt;" style="text;html=1;align=center;verticalAlign=middle;whiteSpace=wrap;rounded=0;" parent="1" vertex="1">
          <mxGeometry x="-2490" y="440" width="60" height="30" as="geometry" />
        </mxCell>
        <mxCell id="Fv-TLhSwu86ZR0lVzaZN-66668500" value="T1 = 2&lt;div&gt;T2 = 57&lt;/div&gt;" style="text;html=1;align=center;verticalAlign=middle;whiteSpace=wrap;rounded=0;" parent="1" vertex="1">
          <mxGeometry x="-1970" y="604" width="60" height="30" as="geometry" />
        </mxCell>
        <mxCell id="Fv-TLhSwu86ZR0lVzaZN-66668501" value="T1 = 1&lt;div&gt;T2 = 1&lt;/div&gt;" style="text;html=1;align=center;verticalAlign=middle;whiteSpace=wrap;rounded=0;" parent="1" vertex="1">
          <mxGeometry x="-2180" y="260" width="60" height="30" as="geometry" />
        </mxCell>
        <mxCell id="Fv-TLhSwu86ZR0lVzaZN-66668502" value="T1 = 1&lt;div&gt;T2 = 1&lt;/div&gt;" style="text;html=1;align=center;verticalAlign=middle;whiteSpace=wrap;rounded=0;" parent="1" vertex="1">
          <mxGeometry x="-2190" y="500" width="60" height="30" as="geometry" />
        </mxCell>
        <mxCell id="Fv-TLhSwu86ZR0lVzaZN-66668504" value="T1 = 2&lt;div&gt;T2 = 57&lt;/div&gt;" style="text;html=1;align=center;verticalAlign=middle;whiteSpace=wrap;rounded=0;" parent="1" vertex="1">
          <mxGeometry x="-2010" y="400" width="60" height="30" as="geometry" />
        </mxCell>
        <mxCell id="Fv-TLhSwu86ZR0lVzaZN-66668505" value="T1 = 3&lt;div&gt;T2 = 58&lt;/div&gt;" style="text;html=1;align=center;verticalAlign=middle;whiteSpace=wrap;rounded=0;" parent="1" vertex="1">
          <mxGeometry x="-1970" y="160" width="60" height="30" as="geometry" />
        </mxCell>
        <mxCell id="Fv-TLhSwu86ZR0lVzaZN-66668506" value="T1 = 3&lt;div&gt;T2 = 52&lt;/div&gt;" style="text;html=1;align=center;verticalAlign=middle;whiteSpace=wrap;rounded=0;" parent="1" vertex="1">
          <mxGeometry x="-1750" y="160" width="60" height="30" as="geometry" />
        </mxCell>
        <mxCell id="Fv-TLhSwu86ZR0lVzaZN-66668507" value="T1 = 4&lt;div&gt;T2 = 59&lt;/div&gt;" style="text;html=1;align=center;verticalAlign=middle;whiteSpace=wrap;rounded=0;" parent="1" vertex="1">
          <mxGeometry x="-1448" y="14" width="60" height="30" as="geometry" />
        </mxCell>
        <mxCell id="Fv-TLhSwu86ZR0lVzaZN-66668508" value="T1 = 4&lt;div&gt;T2 = 59&lt;/div&gt;" style="text;html=1;align=center;verticalAlign=middle;whiteSpace=wrap;rounded=0;" parent="1" vertex="1">
          <mxGeometry x="-1440" y="160" width="60" height="30" as="geometry" />
        </mxCell>
        <mxCell id="Fv-TLhSwu86ZR0lVzaZN-66668509" value="T1 = 10&lt;div&gt;T2 = 59&lt;/div&gt;" style="text;html=1;align=center;verticalAlign=middle;whiteSpace=wrap;rounded=0;" parent="1" vertex="1">
          <mxGeometry x="-1442" y="301" width="60" height="30" as="geometry" />
        </mxCell>
        <mxCell id="Fv-TLhSwu86ZR0lVzaZN-66668510" value="T1 = 4&lt;div&gt;T2 = 59&lt;/div&gt;" style="text;html=1;align=center;verticalAlign=middle;whiteSpace=wrap;rounded=0;" parent="1" vertex="1">
          <mxGeometry x="-1442" y="474" width="60" height="30" as="geometry" />
        </mxCell>
        <mxCell id="Fv-TLhSwu86ZR0lVzaZN-66668511" value="T1 = 7&lt;div&gt;T2 = 52&lt;/div&gt;" style="text;html=1;align=center;verticalAlign=middle;whiteSpace=wrap;rounded=0;" parent="1" vertex="1">
          <mxGeometry x="-1650" y="400" width="60" height="30" as="geometry" />
        </mxCell>
        <mxCell id="Fv-TLhSwu86ZR0lVzaZN-66668512" value="T1 = 3&lt;div&gt;T2 = 48&lt;/div&gt;" style="text;html=1;align=center;verticalAlign=middle;whiteSpace=wrap;rounded=0;" parent="1" vertex="1">
          <mxGeometry x="-1820" y="390" width="60" height="30" as="geometry" />
        </mxCell>
        <mxCell id="Fv-TLhSwu86ZR0lVzaZN-66668513" value="T1 = 2&lt;div&gt;T2 = 15&lt;/div&gt;" style="text;html=1;align=center;verticalAlign=middle;whiteSpace=wrap;rounded=0;" parent="1" vertex="1">
          <mxGeometry x="-1950" y="730" width="60" height="30" as="geometry" />
        </mxCell>
        <mxCell id="Fv-TLhSwu86ZR0lVzaZN-66668514" value="T1 = 15&lt;div&gt;T2 = 15&lt;/div&gt;" style="text;html=1;align=center;verticalAlign=middle;whiteSpace=wrap;rounded=0;" parent="1" vertex="1">
          <mxGeometry x="-2020" y="950" width="60" height="30" as="geometry" />
        </mxCell>
        <mxCell id="Fv-TLhSwu86ZR0lVzaZN-66668515" value="T1 = 16&lt;div&gt;T2 = 16&lt;/div&gt;" style="text;html=1;align=center;verticalAlign=middle;whiteSpace=wrap;rounded=0;" parent="1" vertex="1">
          <mxGeometry x="-1690" y="740" width="60" height="30" as="geometry" />
        </mxCell>
        <mxCell id="Fv-TLhSwu86ZR0lVzaZN-66668516" value="T1 = 17&lt;div&gt;T2 = 17&lt;/div&gt;" style="text;html=1;align=center;verticalAlign=middle;whiteSpace=wrap;rounded=0;" parent="1" vertex="1">
          <mxGeometry x="-1460" y="740" width="60" height="30" as="geometry" />
        </mxCell>
        <mxCell id="Fv-TLhSwu86ZR0lVzaZN-66668517" value="T1 = 31&lt;div&gt;T2 = 31&lt;/div&gt;" style="text;html=1;align=center;verticalAlign=middle;whiteSpace=wrap;rounded=0;" parent="1" vertex="1">
          <mxGeometry x="-1240" y="730" width="60" height="30" as="geometry" />
        </mxCell>
        <mxCell id="Fv-TLhSwu86ZR0lVzaZN-66668518" value="T1 = 33&lt;div&gt;T2 = 33&lt;/div&gt;" style="text;html=1;align=center;verticalAlign=middle;whiteSpace=wrap;rounded=0;" parent="1" vertex="1">
          <mxGeometry x="-1001" y="1026" width="60" height="30" as="geometry" />
        </mxCell>
        <mxCell id="Fv-TLhSwu86ZR0lVzaZN-66668519" value="T1 = 33&lt;div&gt;T2 = 33&lt;/div&gt;" style="text;html=1;align=center;verticalAlign=middle;whiteSpace=wrap;rounded=0;" parent="1" vertex="1">
          <mxGeometry x="-992" y="736" width="60" height="30" as="geometry" />
        </mxCell>
        <mxCell id="Fv-TLhSwu86ZR0lVzaZN-66668520" value="T1 = 35&lt;div&gt;T2 = 47&lt;/div&gt;" style="text;html=1;align=center;verticalAlign=middle;whiteSpace=wrap;rounded=0;" parent="1" vertex="1">
          <mxGeometry x="-968" y="511" width="60" height="30" as="geometry" />
        </mxCell>
        <mxCell id="Fv-TLhSwu86ZR0lVzaZN-66668521" value="T1 = 47&lt;div&gt;T2 = 47&lt;/div&gt;" style="text;html=1;align=center;verticalAlign=middle;whiteSpace=wrap;rounded=0;" parent="1" vertex="1">
          <mxGeometry x="-780" y="730" width="60" height="30" as="geometry" />
        </mxCell>
        <mxCell id="Fv-TLhSwu86ZR0lVzaZN-66668522" value="T1 = 5&lt;div&gt;T2 = 60&lt;/div&gt;" style="text;html=1;align=center;verticalAlign=middle;whiteSpace=wrap;rounded=0;" parent="1" vertex="1">
          <mxGeometry x="-1260" y="160" width="60" height="30" as="geometry" />
        </mxCell>
        <mxCell id="Fv-TLhSwu86ZR0lVzaZN-66668523" value="T1 = 6&lt;div&gt;T2 = 61&lt;/div&gt;" style="text;html=1;align=center;verticalAlign=middle;whiteSpace=wrap;rounded=0;" parent="1" vertex="1">
          <mxGeometry x="-1070" y="160" width="60" height="30" as="geometry" />
        </mxCell>
        <mxCell id="Fv-TLhSwu86ZR0lVzaZN-66668524" value="T1 = 7&lt;div&gt;T2 = 62&lt;/div&gt;" style="text;html=1;align=center;verticalAlign=middle;whiteSpace=wrap;rounded=0;" parent="1" vertex="1">
          <mxGeometry x="-840" y="160" width="60" height="30" as="geometry" />
        </mxCell>
        <mxCell id="Fv-TLhSwu86ZR0lVzaZN-66668525" value="T1 = 50&lt;div&gt;T2 = 51&lt;/div&gt;" style="text;html=1;align=center;verticalAlign=middle;whiteSpace=wrap;rounded=0;" parent="1" vertex="1">
          <mxGeometry x="-580" y="730" width="60" height="30" as="geometry" />
        </mxCell>
        <mxCell id="Fv-TLhSwu86ZR0lVzaZN-66668526" value="T1 = 51&lt;div&gt;T2 = 51&lt;/div&gt;" style="text;html=1;align=center;verticalAlign=middle;whiteSpace=wrap;rounded=0;" parent="1" vertex="1">
          <mxGeometry x="-578" y="989" width="60" height="30" as="geometry" />
        </mxCell>
        <mxCell id="Fv-TLhSwu86ZR0lVzaZN-66668527" value="T1 = 52&lt;div&gt;T2 = 52&lt;/div&gt;" style="text;html=1;align=center;verticalAlign=middle;whiteSpace=wrap;rounded=0;" parent="1" vertex="1">
          <mxGeometry x="-380" y="880" width="60" height="30" as="geometry" />
        </mxCell>
        <mxCell id="Fv-TLhSwu86ZR0lVzaZN-66668528" value="T1 = 53&lt;div&gt;T2 = 53&lt;/div&gt;" style="text;html=1;align=center;verticalAlign=middle;whiteSpace=wrap;rounded=0;" parent="1" vertex="1">
          <mxGeometry x="-200" y="880" width="60" height="30" as="geometry" />
        </mxCell>
        <mxCell id="Fv-TLhSwu86ZR0lVzaZN-66668529" value="T1 = 55&lt;div&gt;T2 = 55&lt;/div&gt;" style="text;html=1;align=center;verticalAlign=middle;whiteSpace=wrap;rounded=0;" parent="1" vertex="1">
          <mxGeometry x="-10" y="880" width="60" height="30" as="geometry" />
        </mxCell>
        <mxCell id="Fv-TLhSwu86ZR0lVzaZN-66668530" value="T1 = 60&lt;div&gt;T2 = 60&lt;/div&gt;" style="text;html=1;align=center;verticalAlign=middle;whiteSpace=wrap;rounded=0;" parent="1" vertex="1">
          <mxGeometry x="160" y="880" width="60" height="30" as="geometry" />
        </mxCell>
        <mxCell id="Fv-TLhSwu86ZR0lVzaZN-66668531" value="T1 = 61&lt;div&gt;T2 = 61&lt;/div&gt;" style="text;html=1;align=center;verticalAlign=middle;whiteSpace=wrap;rounded=0;" parent="1" vertex="1">
          <mxGeometry x="330" y="880" width="60" height="30" as="geometry" />
        </mxCell>
        <mxCell id="Fv-TLhSwu86ZR0lVzaZN-66668532" value="T1 = 62&lt;div&gt;T2 = 62&lt;/div&gt;" style="text;html=1;align=center;verticalAlign=middle;whiteSpace=wrap;rounded=0;" parent="1" vertex="1">
          <mxGeometry x="510" y="880" width="60" height="30" as="geometry" />
        </mxCell>
        <mxCell id="Fv-TLhSwu86ZR0lVzaZN-66668533" value="" style="endArrow=none;dashed=1;html=1;rounded=0;entryX=0.5;entryY=1;entryDx=0;entryDy=0;strokeColor=light-dark(#FF0000,#FF0000);" parent="1" source="eaca8680" target="b6da56d0" edge="1">
          <mxGeometry width="50" height="50" relative="1" as="geometry">
            <mxPoint x="-2070" y="580" as="sourcePoint" />
            <mxPoint x="-2020" y="530" as="targetPoint" />
          </mxGeometry>
        </mxCell>
        <mxCell id="Fv-TLhSwu86ZR0lVzaZN-66668535" value="FA = 0" style="edgeLabel;html=1;align=center;verticalAlign=middle;resizable=0;points=[];" parent="Fv-TLhSwu86ZR0lVzaZN-66668533" vertex="1" connectable="0">
          <mxGeometry x="0.3098" y="-1" relative="1" as="geometry">
            <mxPoint as="offset" />
          </mxGeometry>
        </mxCell>
        <mxCell id="Fv-TLhSwu86ZR0lVzaZN-66668534" value="" style="endArrow=none;dashed=1;html=1;rounded=0;entryX=0.5;entryY=1;entryDx=0;entryDy=0;exitX=1;exitY=0;exitDx=0;exitDy=0;strokeColor=light-dark(#FF0000,#FF0000);" parent="1" source="c5eb1156" target="00ddc8a9" edge="1">
          <mxGeometry width="50" height="50" relative="1" as="geometry">
            <mxPoint x="-1980" y="840" as="sourcePoint" />
            <mxPoint x="-2140" y="370" as="targetPoint" />
          </mxGeometry>
        </mxCell>
        <mxCell id="Fv-TLhSwu86ZR0lVzaZN-66668536" value="FH = 0" style="edgeLabel;html=1;align=center;verticalAlign=middle;resizable=0;points=[];" parent="Fv-TLhSwu86ZR0lVzaZN-66668534" vertex="1" connectable="0">
          <mxGeometry x="0.0055" relative="1" as="geometry">
            <mxPoint y="-1" as="offset" />
          </mxGeometry>
        </mxCell>
        <UserObject label="&lt;table xmlns=&quot;http://www.w3.org/1999/xhtml&quot; cellspacing=&quot;0&quot; cellpadding=&quot;0&quot; dir=&quot;ltr&quot; border=&quot;1&quot; style=&quot;table-layout:fixed;font-size:11pt;font-family:Calibri;width:0px;border-collapse:collapse;border:none&quot; data-sheets-root=&quot;1&quot; data-sheets-baot=&quot;1&quot;&gt;&lt;colgroup&gt;&lt;col width=&quot;64&quot;&gt;&lt;col width=&quot;143&quot;&gt;&lt;col width=&quot;384&quot;&gt;&lt;col width=&quot;82&quot;&gt;&lt;col width=&quot;82&quot;&gt;&lt;col width=&quot;82&quot;&gt;&lt;/colgroup&gt;&lt;tbody&gt;&lt;tr style=&quot;height:20px;&quot;&gt;&lt;td style=&quot;border-top:1px solid #000000;border-right:1px solid #000000;border-bottom:1px solid #000000;border-left:1px solid #000000;overflow:hidden;padding:0px 3px 0px 3px;vertical-align:bottom;font-weight:bold;text-align:center;&quot;&gt;Actividad&lt;/td&gt;&lt;td style=&quot;border-top:1px solid #000000;border-right:1px solid #000000;border-bottom:1px solid #000000;overflow:hidden;padding:0px 3px 0px 3px;vertical-align:bottom;font-weight:bold;text-align:center;&quot;&gt;Actividad Predecesora&lt;/td&gt;&lt;td style=&quot;border-top:1px solid #000000;border-right:1px solid #000000;border-bottom:1px solid #000000;overflow:hidden;padding:0px 3px 0px 3px;vertical-align:bottom;font-weight:bold;&quot;&gt;Nombre  &lt;/td&gt;&lt;td style=&quot;border-top:1px solid #000000;border-right:1px solid #000000;border-bottom:1px solid #000000;overflow:hidden;padding:0px 3px 0px 3px;vertical-align:bottom;font-weight:bold;text-align:center;&quot;&gt;inicio &lt;/td&gt;&lt;td style=&quot;border-top:1px solid #000000;border-right:1px solid #000000;border-bottom:1px solid #000000;overflow:hidden;padding:0px 3px 0px 3px;vertical-align:bottom;font-weight:bold;text-align:center;&quot;&gt;final&lt;/td&gt;&lt;td style=&quot;border-top:1px solid #000000;border-right:1px solid #000000;border-bottom:1px solid #000000;overflow:hidden;padding:0px 3px 0px 3px;vertical-align:bottom;font-weight:bold;text-align:center;&quot;&gt;Tiempo&lt;/td&gt;&lt;/tr&gt;&lt;tr style=&quot;height:20px;&quot;&gt;&lt;td style=&quot;border-right:1px solid #000000;border-bottom:1px solid #000000;border-left:1px solid #000000;overflow:hidden;padding:0px 3px 0px 3px;vertical-align:bottom;text-align:center;&quot;&gt;A&lt;/td&gt;&lt;td style=&quot;border-right:1px solid #000000;border-bottom:1px solid #000000;overflow:hidden;padding:0px 3px 0px 3px;vertical-align:bottom;text-align:center;&quot;&gt;-&lt;/td&gt;&lt;td style=&quot;border-right:1px solid #000000;border-bottom:1px solid #000000;overflow:hidden;padding:0px 3px 0px 3px;vertical-align:bottom;&quot;&gt;Creación de repositorio en github &lt;/td&gt;&lt;td style=&quot;border-right:1px solid #000000;border-bottom:1px solid #000000;overflow:hidden;padding:0px 3px 0px 3px;vertical-align:bottom;text-align:center;&quot;&gt;29/5/2025&lt;/td&gt;&lt;td style=&quot;border-right:1px solid #000000;border-bottom:1px solid #000000;overflow:hidden;padding:0px 3px 0px 3px;vertical-align:bottom;text-align:center;&quot;&gt;29/5/2025&lt;/td&gt;&lt;td style=&quot;border-right:1px solid #000000;border-bottom:1px solid #000000;overflow:hidden;padding:0px 3px 0px 3px;vertical-align:bottom;text-align:center;&quot;&gt;1&lt;/td&gt;&lt;/tr&gt;&lt;tr style=&quot;height:20px;&quot;&gt;&lt;td style=&quot;border-right:1px solid #000000;border-bottom:1px solid #000000;border-left:1px solid #000000;overflow:hidden;padding:0px 3px 0px 3px;vertical-align:bottom;text-align:center;&quot;&gt;AB&lt;/td&gt;&lt;td style=&quot;border-right:1px solid #000000;border-bottom:1px solid #000000;overflow:hidden;padding:0px 3px 0px 3px;vertical-align:bottom;text-align:center;&quot;&gt;C&lt;/td&gt;&lt;td style=&quot;border-right:1px solid #000000;border-bottom:1px solid #000000;overflow:hidden;padding:0px 3px 0px 3px;vertical-align:bottom;&quot;&gt;Estudio de factibiliidades&lt;/td&gt;&lt;td style=&quot;border-right:1px solid #000000;border-bottom:1px solid #000000;overflow:hidden;padding:0px 3px 0px 3px;vertical-align:bottom;text-align:center;&quot;&gt;19/6/2025&lt;/td&gt;&lt;td style=&quot;border-right:1px solid #000000;border-bottom:1px solid #000000;overflow:hidden;padding:0px 3px 0px 3px;vertical-align:bottom;text-align:center;&quot;&gt;19/6/2025&lt;/td&gt;&lt;td style=&quot;border-right:1px solid #000000;border-bottom:1px solid #000000;overflow:hidden;padding:0px 3px 0px 3px;vertical-align:bottom;text-align:center;&quot;&gt;1&lt;/td&gt;&lt;/tr&gt;&lt;tr style=&quot;height:20px;&quot;&gt;&lt;td style=&quot;border-right:1px solid #000000;border-bottom:1px solid #000000;border-left:1px solid #000000;overflow:hidden;padding:0px 3px 0px 3px;vertical-align:bottom;text-align:center;&quot;&gt;AC&lt;/td&gt;&lt;td style=&quot;border-right:1px solid #000000;border-bottom:1px solid #000000;overflow:hidden;padding:0px 3px 0px 3px;vertical-align:bottom;text-align:center;&quot;&gt;AB&lt;/td&gt;&lt;td style=&quot;border-right:1px solid #000000;border-bottom:1px solid #000000;overflow:hidden;padding:0px 3px 0px 3px;vertical-align:bottom;&quot;&gt;Justificación técnologica &lt;/td&gt;&lt;td style=&quot;border-right:1px solid #000000;border-bottom:1px solid #000000;overflow:hidden;padding:0px 3px 0px 3px;vertical-align:bottom;text-align:center;&quot;&gt;21/6/2025&lt;/td&gt;&lt;td style=&quot;border-right:1px solid #000000;border-bottom:1px solid #000000;overflow:hidden;padding:0px 3px 0px 3px;vertical-align:bottom;text-align:center;&quot;&gt;24/6/2025&lt;/td&gt;&lt;td style=&quot;border-right:1px solid #000000;border-bottom:1px solid #000000;overflow:hidden;padding:0px 3px 0px 3px;vertical-align:bottom;text-align:center;&quot;&gt;4&lt;/td&gt;&lt;/tr&gt;&lt;tr style=&quot;height:20px;&quot;&gt;&lt;td style=&quot;border-right:1px solid #000000;border-bottom:1px solid #000000;border-left:1px solid #000000;overflow:hidden;padding:0px 3px 0px 3px;vertical-align:bottom;text-align:center;&quot;&gt;AD&lt;/td&gt;&lt;td style=&quot;border-right:1px solid #000000;border-bottom:1px solid #000000;overflow:hidden;padding:0px 3px 0px 3px;vertical-align:bottom;text-align:center;&quot;&gt;Z&lt;/td&gt;&lt;td style=&quot;border-right:1px solid #000000;border-bottom:1px solid #000000;overflow:hidden;padding:0px 3px 0px 3px;vertical-align:bottom;&quot;&gt;Instalación y configuración de la red&lt;/td&gt;&lt;td style=&quot;border-right:1px solid #000000;border-bottom:1px solid #000000;overflow:hidden;padding:0px 3px 0px 3px;vertical-align:bottom;text-align:center;&quot;&gt;7/7/2025&lt;/td&gt;&lt;td style=&quot;border-right:1px solid #000000;border-bottom:1px solid #000000;overflow:hidden;padding:0px 3px 0px 3px;vertical-align:bottom;text-align:center;&quot;&gt;11/7/2025&lt;/td&gt;&lt;td style=&quot;border-right:1px solid #000000;border-bottom:1px solid #000000;overflow:hidden;padding:0px 3px 0px 3px;vertical-align:bottom;text-align:center;&quot;&gt;5&lt;/td&gt;&lt;/tr&gt;&lt;tr style=&quot;height:20px;&quot;&gt;&lt;td style=&quot;border-right:1px solid #000000;border-bottom:1px solid #000000;border-left:1px solid #000000;overflow:hidden;padding:0px 3px 0px 3px;vertical-align:bottom;text-align:center;&quot;&gt;AE&lt;/td&gt;&lt;td style=&quot;border-right:1px solid #000000;border-bottom:1px solid #000000;overflow:hidden;padding:0px 3px 0px 3px;vertical-align:bottom;text-align:center;&quot;&gt;AD&lt;/td&gt;&lt;td style=&quot;border-right:1px solid #000000;border-bottom:1px solid #000000;overflow:hidden;padding:0px 3px 0px 3px;vertical-align:bottom;&quot;&gt;Documentación &lt;/td&gt;&lt;td style=&quot;border-right:1px solid #000000;border-bottom:1px solid #000000;overflow:hidden;padding:0px 3px 0px 3px;vertical-align:bottom;text-align:center;&quot;&gt;23/6/2025&lt;/td&gt;&lt;td style=&quot;border-right:1px solid #000000;border-bottom:1px solid #000000;overflow:hidden;padding:0px 3px 0px 3px;vertical-align:bottom;text-align:center;&quot;&gt;23/6/2025&lt;/td&gt;&lt;td style=&quot;border-right:1px solid #000000;border-bottom:1px solid #000000;overflow:hidden;padding:0px 3px 0px 3px;vertical-align:bottom;text-align:center;&quot;&gt;1&lt;/td&gt;&lt;/tr&gt;&lt;tr style=&quot;height:20px;&quot;&gt;&lt;td style=&quot;border-right:1px solid #000000;border-bottom:1px solid #000000;border-left:1px solid #000000;overflow:hidden;padding:0px 3px 0px 3px;vertical-align:bottom;text-align:center;&quot;&gt;AF&lt;/td&gt;&lt;td style=&quot;border-right:1px solid #000000;border-bottom:1px solid #000000;overflow:hidden;padding:0px 3px 0px 3px;vertical-align:bottom;text-align:center;&quot;&gt;AD&lt;/td&gt;&lt;td style=&quot;border-right:1px solid #000000;border-bottom:1px solid #000000;overflow:hidden;padding:0px 3px 0px 3px;vertical-align:bottom;&quot;&gt;Subir todo el proyecto hasta la primera entrega &lt;/td&gt;&lt;td style=&quot;border-right:1px solid #000000;border-bottom:1px solid #000000;overflow:hidden;padding:0px 3px 0px 3px;vertical-align:bottom;text-align:center;&quot;&gt;11/7/2025&lt;/td&gt;&lt;td style=&quot;border-right:1px solid #000000;border-bottom:1px solid #000000;overflow:hidden;padding:0px 3px 0px 3px;vertical-align:bottom;text-align:center;&quot;&gt;11/7/2025&lt;/td&gt;&lt;td style=&quot;border-right:1px solid #000000;border-bottom:1px solid #000000;overflow:hidden;padding:0px 3px 0px 3px;vertical-align:bottom;text-align:center;&quot;&gt;1&lt;/td&gt;&lt;/tr&gt;&lt;tr style=&quot;height:20px;&quot;&gt;&lt;td style=&quot;border-right:1px solid #000000;border-bottom:1px solid #000000;border-left:1px solid #000000;overflow:hidden;padding:0px 3px 0px 3px;vertical-align:bottom;text-align:center;&quot;&gt;B&lt;/td&gt;&lt;td style=&quot;border-right:1px solid #000000;border-bottom:1px solid #000000;overflow:hidden;padding:0px 3px 0px 3px;vertical-align:bottom;text-align:center;&quot;&gt;-&lt;/td&gt;&lt;td style=&quot;border-right:1px solid #000000;border-bottom:1px solid #000000;overflow:hidden;padding:0px 3px 0px 3px;vertical-align:bottom;&quot;&gt;Relevamiento &lt;/td&gt;&lt;td style=&quot;border-right:1px solid #000000;border-bottom:1px solid #000000;overflow:hidden;padding:0px 3px 0px 3px;vertical-align:bottom;text-align:center;&quot;&gt;14/6/2025&lt;/td&gt;&lt;td style=&quot;border-right:1px solid #000000;border-bottom:1px solid #000000;overflow:hidden;padding:0px 3px 0px 3px;vertical-align:bottom;text-align:center;&quot;&gt;14/6/2025&lt;/td&gt;&lt;td style=&quot;border-right:1px solid #000000;border-bottom:1px solid #000000;overflow:hidden;padding:0px 3px 0px 3px;vertical-align:bottom;text-align:center;&quot;&gt;1&lt;/td&gt;&lt;/tr&gt;&lt;tr style=&quot;height:20px;&quot;&gt;&lt;td style=&quot;border-right:1px solid #000000;border-bottom:1px solid #000000;border-left:1px solid #000000;overflow:hidden;padding:0px 3px 0px 3px;vertical-align:bottom;text-align:center;&quot;&gt;C&lt;/td&gt;&lt;td style=&quot;border-right:1px solid #000000;border-bottom:1px solid #000000;overflow:hidden;padding:0px 3px 0px 3px;vertical-align:bottom;text-align:center;&quot;&gt;B&lt;/td&gt;&lt;td style=&quot;border-right:1px solid #000000;border-bottom:1px solid #000000;overflow:hidden;padding:0px 3px 0px 3px;vertical-align:bottom;&quot;&gt;Especificación de requerimientos &lt;/td&gt;&lt;td style=&quot;border-right:1px solid #000000;border-bottom:1px solid #000000;overflow:hidden;padding:0px 3px 0px 3px;vertical-align:bottom;text-align:center;&quot;&gt;14/6/2025&lt;/td&gt;&lt;td style=&quot;border-right:1px solid #000000;border-bottom:1px solid #000000;overflow:hidden;padding:0px 3px 0px 3px;vertical-align:bottom;text-align:center;&quot;&gt;14/6/2025&lt;/td&gt;&lt;td style=&quot;border-right:1px solid #000000;border-bottom:1px solid #000000;overflow:hidden;padding:0px 3px 0px 3px;vertical-align:bottom;text-align:center;&quot;&gt;1&lt;/td&gt;&lt;/tr&gt;&lt;tr style=&quot;height:20px;&quot;&gt;&lt;td style=&quot;border-right:1px solid #000000;border-bottom:1px solid #000000;border-left:1px solid #000000;overflow:hidden;padding:0px 3px 0px 3px;vertical-align:bottom;text-align:center;&quot;&gt;D&lt;/td&gt;&lt;td style=&quot;border-right:1px solid #000000;border-bottom:1px solid #000000;overflow:hidden;padding:0px 3px 0px 3px;vertical-align:bottom;text-align:center;&quot;&gt;C&lt;/td&gt;&lt;td style=&quot;border-right:1px solid #000000;border-bottom:1px solid #000000;overflow:hidden;padding:0px 3px 0px 3px;vertical-align:bottom;&quot;&gt;Cronograma inicial del proyecto &lt;/td&gt;&lt;td style=&quot;border-right:1px solid #000000;border-bottom:1px solid #000000;overflow:hidden;padding:0px 3px 0px 3px;vertical-align:bottom;text-align:center;&quot;&gt;11/6/2025&lt;/td&gt;&lt;td style=&quot;border-right:1px solid #000000;border-bottom:1px solid #000000;overflow:hidden;padding:0px 3px 0px 3px;vertical-align:bottom;text-align:center;&quot;&gt;11/6/2025&lt;/td&gt;&lt;td style=&quot;border-right:1px solid #000000;border-bottom:1px solid #000000;overflow:hidden;padding:0px 3px 0px 3px;vertical-align:bottom;text-align:center;&quot;&gt;1&lt;/td&gt;&lt;/tr&gt;&lt;tr style=&quot;height:20px;&quot;&gt;&lt;td style=&quot;border-right:1px solid #000000;border-bottom:1px solid #000000;border-left:1px solid #000000;overflow:hidden;padding:0px 3px 0px 3px;vertical-align:bottom;text-align:center;&quot;&gt;E&lt;/td&gt;&lt;td style=&quot;border-right:1px solid #000000;border-bottom:1px solid #000000;overflow:hidden;padding:0px 3px 0px 3px;vertical-align:bottom;text-align:center;&quot;&gt;D&lt;/td&gt;&lt;td style=&quot;border-right:1px solid #000000;border-bottom:1px solid #000000;overflow:hidden;padding:0px 3px 0px 3px;vertical-align:bottom;&quot;&gt;Reglamento interno &lt;/td&gt;&lt;td style=&quot;border-right:1px solid #000000;border-bottom:1px solid #000000;overflow:hidden;padding:0px 3px 0px 3px;vertical-align:bottom;text-align:center;&quot;&gt;19/6/2025&lt;/td&gt;&lt;td style=&quot;border-right:1px solid #000000;border-bottom:1px solid #000000;overflow:hidden;padding:0px 3px 0px 3px;vertical-align:bottom;text-align:center;&quot;&gt;19/6/2025&lt;/td&gt;&lt;td style=&quot;border-right:1px solid #000000;border-bottom:1px solid #000000;overflow:hidden;padding:0px 3px 0px 3px;vertical-align:bottom;text-align:center;&quot;&gt;1&lt;/td&gt;&lt;/tr&gt;&lt;tr style=&quot;height:20px;&quot;&gt;&lt;td style=&quot;border-right:1px solid #000000;border-bottom:1px solid #000000;border-left:1px solid #000000;overflow:hidden;padding:0px 3px 0px 3px;vertical-align:bottom;text-align:center;&quot;&gt;F&lt;/td&gt;&lt;td style=&quot;border-right:1px solid #000000;border-bottom:1px solid #000000;overflow:hidden;padding:0px 3px 0px 3px;vertical-align:bottom;text-align:center;&quot;&gt;B&lt;/td&gt;&lt;td style=&quot;border-right:1px solid #000000;border-bottom:1px solid #000000;overflow:hidden;padding:0px 3px 0px 3px;vertical-align:bottom;&quot;&gt;Localización de la empresa &lt;/td&gt;&lt;td style=&quot;border-right:1px solid #000000;border-bottom:1px solid #000000;overflow:hidden;padding:0px 3px 0px 3px;vertical-align:bottom;text-align:center;&quot;&gt;14/6/2025&lt;/td&gt;&lt;td style=&quot;border-right:1px solid #000000;border-bottom:1px solid #000000;overflow:hidden;padding:0px 3px 0px 3px;vertical-align:bottom;text-align:center;&quot;&gt;14/6/2025&lt;/td&gt;&lt;td style=&quot;border-right:1px solid #000000;border-bottom:1px solid #000000;overflow:hidden;padding:0px 3px 0px 3px;vertical-align:bottom;text-align:center;&quot;&gt;1&lt;/td&gt;&lt;/tr&gt;&lt;tr style=&quot;height:20px;&quot;&gt;&lt;td style=&quot;border-right:1px solid #000000;border-bottom:1px solid #000000;border-left:1px solid #000000;overflow:hidden;padding:0px 3px 0px 3px;vertical-align:bottom;text-align:center;&quot;&gt;G&lt;/td&gt;&lt;td style=&quot;border-right:1px solid #000000;border-bottom:1px solid #000000;overflow:hidden;padding:0px 3px 0px 3px;vertical-align:bottom;text-align:center;&quot;&gt;B&lt;/td&gt;&lt;td style=&quot;border-right:1px solid #000000;border-bottom:1px solid #000000;overflow:hidden;padding:0px 3px 0px 3px;vertical-align:bottom;&quot;&gt;Forma Juridica &lt;/td&gt;&lt;td style=&quot;border-right:1px solid #000000;border-bottom:1px solid #000000;overflow:hidden;padding:0px 3px 0px 3px;vertical-align:bottom;text-align:center;&quot;&gt;14/6/2025&lt;/td&gt;&lt;td style=&quot;border-right:1px solid #000000;border-bottom:1px solid #000000;overflow:hidden;padding:0px 3px 0px 3px;vertical-align:bottom;text-align:center;&quot;&gt;14/6/2025&lt;/td&gt;&lt;td style=&quot;border-right:1px solid #000000;border-bottom:1px solid #000000;overflow:hidden;padding:0px 3px 0px 3px;vertical-align:bottom;text-align:center;&quot;&gt;1&lt;/td&gt;&lt;/tr&gt;&lt;tr style=&quot;height:20px;&quot;&gt;&lt;td style=&quot;border-right:1px solid #000000;border-bottom:1px solid #000000;border-left:1px solid #000000;overflow:hidden;padding:0px 3px 0px 3px;vertical-align:bottom;text-align:center;&quot;&gt;H&lt;/td&gt;&lt;td style=&quot;border-right:1px solid #000000;border-bottom:1px solid #000000;overflow:hidden;padding:0px 3px 0px 3px;vertical-align:bottom;text-align:center;&quot;&gt;B&lt;/td&gt;&lt;td style=&quot;border-right:1px solid #000000;border-bottom:1px solid #000000;overflow:hidden;padding:0px 3px 0px 3px;vertical-align:bottom;&quot;&gt;Documentación de inicio &lt;/td&gt;&lt;td style=&quot;border-right:1px solid #000000;border-bottom:1px solid #000000;overflow:hidden;padding:0px 3px 0px 3px;vertical-align:bottom;text-align:center;&quot;&gt;20/5/2025&lt;/td&gt;&lt;td style=&quot;border-right:1px solid #000000;border-bottom:1px solid #000000;overflow:hidden;padding:0px 3px 0px 3px;vertical-align:bottom;text-align:center;&quot;&gt;2/6/2025&lt;/td&gt;&lt;td style=&quot;border-right:1px solid #000000;border-bottom:1px solid #000000;overflow:hidden;padding:0px 3px 0px 3px;vertical-align:bottom;text-align:center;&quot;&gt;14&lt;/td&gt;&lt;/tr&gt;&lt;tr style=&quot;height:20px;&quot;&gt;&lt;td style=&quot;border-right:1px solid #000000;border-bottom:1px solid #000000;border-left:1px solid #000000;overflow:hidden;padding:0px 3px 0px 3px;vertical-align:bottom;text-align:center;&quot;&gt;I&lt;/td&gt;&lt;td style=&quot;border-right:1px solid #000000;border-bottom:1px solid #000000;overflow:hidden;padding:0px 3px 0px 3px;vertical-align:bottom;text-align:center;&quot;&gt;G&lt;/td&gt;&lt;td style=&quot;border-right:1px solid #000000;border-bottom:1px solid #000000;overflow:hidden;padding:0px 3px 0px 3px;vertical-align:bottom;&quot;&gt;Nombre de empresa y fundamentción &lt;/td&gt;&lt;td style=&quot;border-right:1px solid #000000;border-bottom:1px solid #000000;overflow:hidden;padding:0px 3px 0px 3px;vertical-align:bottom;text-align:center;&quot;&gt;24/5/2025&lt;/td&gt;&lt;td style=&quot;border-right:1px solid #000000;border-bottom:1px solid #000000;overflow:hidden;padding:0px 3px 0px 3px;vertical-align:bottom;text-align:center;&quot;&gt;24/5/2025&lt;/td&gt;&lt;td style=&quot;border-right:1px solid #000000;border-bottom:1px solid #000000;overflow:hidden;padding:0px 3px 0px 3px;vertical-align:bottom;text-align:center;&quot;&gt;1&lt;/td&gt;&lt;/tr&gt;&lt;tr style=&quot;height:20px;&quot;&gt;&lt;td style=&quot;border-right:1px solid #000000;border-bottom:1px solid #000000;border-left:1px solid #000000;overflow:hidden;padding:0px 3px 0px 3px;vertical-align:bottom;text-align:center;&quot;&gt;J&lt;/td&gt;&lt;td style=&quot;border-right:1px solid #000000;border-bottom:1px solid #000000;overflow:hidden;padding:0px 3px 0px 3px;vertical-align:bottom;text-align:center;&quot;&gt;D&lt;/td&gt;&lt;td style=&quot;border-right:1px solid #000000;border-bottom:1px solid #000000;overflow:hidden;padding:0px 3px 0px 3px;vertical-align:bottom;&quot;&gt;Objetivos generales de la empresa &lt;/td&gt;&lt;td style=&quot;border-right:1px solid #000000;border-bottom:1px solid #000000;overflow:hidden;padding:0px 3px 0px 3px;vertical-align:bottom;text-align:center;&quot;&gt;24/5/2025&lt;/td&gt;&lt;td style=&quot;border-right:1px solid #000000;border-bottom:1px solid #000000;overflow:hidden;padding:0px 3px 0px 3px;vertical-align:bottom;text-align:center;&quot;&gt;24/5/2025&lt;/td&gt;&lt;td style=&quot;border-right:1px solid #000000;border-bottom:1px solid #000000;overflow:hidden;padding:0px 3px 0px 3px;vertical-align:bottom;text-align:center;&quot;&gt;1&lt;/td&gt;&lt;/tr&gt;&lt;tr style=&quot;height:20px;&quot;&gt;&lt;td style=&quot;border-right:1px solid #000000;border-bottom:1px solid #000000;border-left:1px solid #000000;overflow:hidden;padding:0px 3px 0px 3px;vertical-align:bottom;text-align:center;&quot;&gt;K&lt;/td&gt;&lt;td style=&quot;border-right:1px solid #000000;border-bottom:1px solid #000000;overflow:hidden;padding:0px 3px 0px 3px;vertical-align:bottom;text-align:center;&quot;&gt;C&lt;/td&gt;&lt;td style=&quot;border-right:1px solid #000000;border-bottom:1px solid #000000;overflow:hidden;padding:0px 3px 0px 3px;vertical-align:bottom;&quot;&gt;Público objetivo&lt;/td&gt;&lt;td style=&quot;border-right:1px solid #000000;border-bottom:1px solid #000000;overflow:hidden;padding:0px 3px 0px 3px;vertical-align:bottom;text-align:center;&quot;&gt;25/5/2025&lt;/td&gt;&lt;td style=&quot;border-right:1px solid #000000;border-bottom:1px solid #000000;overflow:hidden;padding:0px 3px 0px 3px;vertical-align:bottom;text-align:center;&quot;&gt;25/5/2025&lt;/td&gt;&lt;td style=&quot;border-right:1px solid #000000;border-bottom:1px solid #000000;overflow:hidden;padding:0px 3px 0px 3px;vertical-align:bottom;text-align:center;&quot;&gt;1&lt;/td&gt;&lt;/tr&gt;&lt;tr style=&quot;height:20px;&quot;&gt;&lt;td style=&quot;border-right:1px solid #000000;border-bottom:1px solid #000000;border-left:1px solid #000000;overflow:hidden;padding:0px 3px 0px 3px;vertical-align:bottom;text-align:center;&quot;&gt;L&lt;/td&gt;&lt;td style=&quot;border-right:1px solid #000000;border-bottom:1px solid #000000;overflow:hidden;padding:0px 3px 0px 3px;vertical-align:bottom;text-align:center;&quot;&gt;I&lt;/td&gt;&lt;td style=&quot;border-right:1px solid #000000;border-bottom:1px solid #000000;overflow:hidden;padding:0px 3px 0px 3px;vertical-align:bottom;&quot;&gt;Creación logotipo, isotipo y slogan &lt;/td&gt;&lt;td style=&quot;border-right:1px solid #000000;border-bottom:1px solid #000000;overflow:hidden;padding:0px 3px 0px 3px;vertical-align:bottom;text-align:center;&quot;&gt;25/5/2025&lt;/td&gt;&lt;td style=&quot;border-right:1px solid #000000;border-bottom:1px solid #000000;overflow:hidden;padding:0px 3px 0px 3px;vertical-align:bottom;text-align:center;&quot;&gt;25/5/2025&lt;/td&gt;&lt;td style=&quot;border-right:1px solid #000000;border-bottom:1px solid #000000;overflow:hidden;padding:0px 3px 0px 3px;vertical-align:bottom;text-align:center;&quot;&gt;1&lt;/td&gt;&lt;/tr&gt;&lt;tr style=&quot;height:20px;&quot;&gt;&lt;td style=&quot;border-right:1px solid #000000;border-bottom:1px solid #000000;border-left:1px solid #000000;overflow:hidden;padding:0px 3px 0px 3px;vertical-align:bottom;text-align:center;&quot;&gt;M&lt;/td&gt;&lt;td style=&quot;border-right:1px solid #000000;border-bottom:1px solid #000000;overflow:hidden;padding:0px 3px 0px 3px;vertical-align:bottom;text-align:center;&quot;&gt;J&lt;/td&gt;&lt;td style=&quot;border-right:1px solid #000000;border-bottom:1px solid #000000;overflow:hidden;padding:0px 3px 0px 3px;vertical-align:bottom;&quot;&gt;Misión, Visión y valores de la empresa &lt;/td&gt;&lt;td style=&quot;border-right:1px solid #000000;border-bottom:1px solid #000000;overflow:hidden;padding:0px 3px 0px 3px;vertical-align:bottom;text-align:center;&quot;&gt;25/5/2025&lt;/td&gt;&lt;td style=&quot;border-right:1px solid #000000;border-bottom:1px solid #000000;overflow:hidden;padding:0px 3px 0px 3px;vertical-align:bottom;text-align:center;&quot;&gt;25/5/2025&lt;/td&gt;&lt;td style=&quot;border-right:1px solid #000000;border-bottom:1px solid #000000;overflow:hidden;padding:0px 3px 0px 3px;vertical-align:bottom;text-align:center;&quot;&gt;1&lt;/td&gt;&lt;/tr&gt;&lt;tr style=&quot;height:20px;&quot;&gt;&lt;td style=&quot;border-right:1px solid #000000;border-bottom:1px solid #000000;border-left:1px solid #000000;overflow:hidden;padding:0px 3px 0px 3px;vertical-align:bottom;text-align:center;&quot;&gt;N&lt;/td&gt;&lt;td style=&quot;border-right:1px solid #000000;border-bottom:1px solid #000000;overflow:hidden;padding:0px 3px 0px 3px;vertical-align:bottom;text-align:center;&quot;&gt;M&lt;/td&gt;&lt;td style=&quot;border-right:1px solid #000000;border-bottom:1px solid #000000;overflow:hidden;padding:0px 3px 0px 3px;vertical-align:bottom;&quot;&gt;Documentación obligatoria &lt;/td&gt;&lt;td style=&quot;border-right:1px solid #000000;border-bottom:1px solid #000000;overflow:hidden;padding:0px 3px 0px 3px;vertical-align:bottom;text-align:center;&quot;&gt;25/6/2025&lt;/td&gt;&lt;td style=&quot;border-right:1px solid #000000;border-bottom:1px solid #000000;overflow:hidden;padding:0px 3px 0px 3px;vertical-align:bottom;text-align:center;&quot;&gt;25/6/2025&lt;/td&gt;&lt;td style=&quot;border-right:1px solid #000000;border-bottom:1px solid #000000;overflow:hidden;padding:0px 3px 0px 3px;vertical-align:bottom;text-align:center;&quot;&gt;1&lt;/td&gt;&lt;/tr&gt;&lt;tr style=&quot;height:21px;&quot;&gt;&lt;td style=&quot;border-right:1px solid #000000;border-bottom:1px solid #000000;border-left:1px solid #000000;overflow:hidden;padding:0px 3px 0px 3px;vertical-align:bottom;text-align:center;&quot;&gt;O&lt;/td&gt;&lt;td style=&quot;border-right:1px solid #000000;border-bottom:1px solid #000000;overflow:hidden;padding:0px 3px 0px 3px;vertical-align:bottom;text-align:center;&quot;&gt;N&lt;/td&gt;&lt;td style=&quot;border-right:1px solid #000000;border-bottom:1px solid #000000;overflow:hidden;padding:0px 3px 0px 3px;vertical-align:bottom;&quot;&gt;Readacción academica &lt;/td&gt;&lt;td style=&quot;border-right:1px solid #000000;border-bottom:1px solid #000000;overflow:hidden;padding:0px 3px 0px 3px;vertical-align:bottom;text-align:center;&quot;&gt;25/6/2025&lt;/td&gt;&lt;td style=&quot;border-right:1px solid #000000;border-bottom:1px solid #000000;overflow:hidden;padding:0px 3px 0px 3px;vertical-align:bottom;text-align:center;&quot;&gt;25/6/2025&lt;/td&gt;&lt;td style=&quot;border-right:1px solid #000000;border-bottom:1px solid #000000;overflow:hidden;padding:0px 3px 0px 3px;vertical-align:bottom;text-align:center;&quot;&gt;1&lt;/td&gt;&lt;/tr&gt;&lt;tr style=&quot;height:21px;&quot;&gt;&lt;td style=&quot;border-right:1px solid #000000;border-bottom:1px solid #000000;border-left:1px solid #000000;overflow:hidden;padding:0px 3px 0px 3px;vertical-align:bottom;text-align:center;&quot;&gt;P&lt;/td&gt;&lt;td style=&quot;border-right:1px solid #000000;border-bottom:1px solid #000000;overflow:hidden;padding:0px 3px 0px 3px;vertical-align:bottom;text-align:center;&quot;&gt;L&lt;/td&gt;&lt;td style=&quot;border-right:1px solid #000000;border-bottom:1px solid #000000;overflow:hidden;padding:0px 3px 0px 3px;vertical-align:bottom;&quot;&gt;Prototipado de la aplicación &lt;/td&gt;&lt;td style=&quot;border-right:1px solid #000000;border-bottom:1px solid #000000;overflow:hidden;padding:0px 3px 0px 3px;vertical-align:bottom;text-align:center;&quot;&gt;24/6/2025&lt;/td&gt;&lt;td style=&quot;border-right:1px solid #000000;border-bottom:1px solid #000000;overflow:hidden;padding:0px 3px 0px 3px;vertical-align:bottom;text-align:center;&quot;&gt;7/7/2025&lt;/td&gt;&lt;td style=&quot;border-right:1px solid #000000;border-bottom:1px solid #000000;overflow:hidden;padding:0px 3px 0px 3px;vertical-align:bottom;text-align:center;&quot;&gt;14&lt;/td&gt;&lt;/tr&gt;&lt;tr style=&quot;height:21px;&quot;&gt;&lt;td style=&quot;border-right:1px solid #000000;border-bottom:1px solid #000000;border-left:1px solid #000000;overflow:hidden;padding:0px 3px 0px 3px;vertical-align:bottom;text-align:center;&quot;&gt;Q&lt;/td&gt;&lt;td style=&quot;border-right:1px solid #000000;border-bottom:1px solid #000000;overflow:hidden;padding:0px 3px 0px 3px;vertical-align:bottom;text-align:center;&quot;&gt;P&lt;/td&gt;&lt;td style=&quot;border-right:1px solid #000000;border-bottom:1px solid #000000;overflow:hidden;padding:0px 3px 0px 3px;vertical-align:bottom;&quot;&gt;Bocetos de UI/UX digital&lt;/td&gt;&lt;td style=&quot;border-right:1px solid #000000;border-bottom:1px solid #000000;overflow:hidden;padding:0px 3px 0px 3px;vertical-align:bottom;text-align:center;&quot;&gt;21/6/2025&lt;/td&gt;&lt;td style=&quot;border-right:1px solid #000000;border-bottom:1px solid #000000;overflow:hidden;padding:0px 3px 0px 3px;vertical-align:bottom;text-align:center;&quot;&gt;22/6/2025&lt;/td&gt;&lt;td style=&quot;border-right:1px solid #000000;border-bottom:1px solid #000000;overflow:hidden;padding:0px 3px 0px 3px;vertical-align:bottom;text-align:center;&quot;&gt;2&lt;/td&gt;&lt;/tr&gt;&lt;tr style=&quot;height:21px;&quot;&gt;&lt;td style=&quot;border-right:1px solid #000000;border-bottom:1px solid #000000;border-left:1px solid #000000;overflow:hidden;padding:0px 3px 0px 3px;vertical-align:bottom;text-align:center;&quot;&gt;R&lt;/td&gt;&lt;td style=&quot;border-right:1px solid #000000;border-bottom:1px solid #000000;overflow:hidden;padding:0px 3px 0px 3px;vertical-align:bottom;text-align:center;&quot;&gt;P&lt;/td&gt;&lt;td style=&quot;border-right:1px solid #000000;border-bottom:1px solid #000000;overflow:hidden;padding:0px 3px 0px 3px;vertical-align:bottom;&quot;&gt;Diseño del tablero de juego &lt;/td&gt;&lt;td style=&quot;border-right:1px solid #000000;border-bottom:1px solid #000000;overflow:hidden;padding:0px 3px 0px 3px;vertical-align:bottom;text-align:center;&quot;&gt;21/6/2025&lt;/td&gt;&lt;td style=&quot;border-right:1px solid #000000;border-bottom:1px solid #000000;overflow:hidden;padding:0px 3px 0px 3px;vertical-align:bottom;text-align:center;&quot;&gt;22/6/2025&lt;/td&gt;&lt;td style=&quot;border-right:1px solid #000000;border-bottom:1px solid #000000;overflow:hidden;padding:0px 3px 0px 3px;vertical-align:bottom;text-align:center;&quot;&gt;2&lt;/td&gt;&lt;/tr&gt;&lt;tr style=&quot;height:21px;&quot;&gt;&lt;td style=&quot;border-right:1px solid #000000;border-bottom:1px solid #000000;border-left:1px solid #000000;overflow:hidden;padding:0px 3px 0px 3px;vertical-align:bottom;text-align:center;&quot;&gt;S&lt;/td&gt;&lt;td style=&quot;border-right:1px solid #000000;border-bottom:1px solid #000000;overflow:hidden;padding:0px 3px 0px 3px;vertical-align:bottom;text-align:center;&quot;&gt;R&lt;/td&gt;&lt;td style=&quot;border-right:1px solid #000000;border-bottom:1px solid #000000;overflow:hidden;padding:0px 3px 0px 3px;vertical-align:bottom;&quot;&gt;Prototipo de interfaz de usuario&lt;/td&gt;&lt;td style=&quot;border-right:1px solid #000000;border-bottom:1px solid #000000;overflow:hidden;padding:0px 3px 0px 3px;vertical-align:bottom;text-align:center;&quot;&gt;27/6/2025&lt;/td&gt;&lt;td style=&quot;border-right:1px solid #000000;border-bottom:1px solid #000000;overflow:hidden;padding:0px 3px 0px 3px;vertical-align:bottom;text-align:center;&quot;&gt;10/7/2025&lt;/td&gt;&lt;td style=&quot;border-right:1px solid #000000;border-bottom:1px solid #000000;overflow:hidden;padding:0px 3px 0px 3px;vertical-align:bottom;text-align:center;&quot;&gt;14&lt;/td&gt;&lt;/tr&gt;&lt;tr style=&quot;height:21px;&quot;&gt;&lt;td style=&quot;border-right:1px solid #000000;border-bottom:1px solid #000000;border-left:1px solid #000000;overflow:hidden;padding:0px 3px 0px 3px;vertical-align:bottom;text-align:center;&quot;&gt;T&lt;/td&gt;&lt;td style=&quot;border-right:1px solid #000000;border-bottom:1px solid #000000;overflow:hidden;padding:0px 3px 0px 3px;vertical-align:bottom;text-align:center;&quot;&gt;R&lt;/td&gt;&lt;td style=&quot;border-right:1px solid #000000;border-bottom:1px solid #000000;overflow:hidden;padding:0px 3px 0px 3px;vertical-align:bottom;&quot;&gt;Diseño del dado &lt;/td&gt;&lt;td style=&quot;border-right:1px solid #000000;border-bottom:1px solid #000000;overflow:hidden;padding:0px 3px 0px 3px;vertical-align:bottom;text-align:center;&quot;&gt;21/6/2025&lt;/td&gt;&lt;td style=&quot;border-right:1px solid #000000;border-bottom:1px solid #000000;overflow:hidden;padding:0px 3px 0px 3px;vertical-align:bottom;text-align:center;&quot;&gt;22/6/2025&lt;/td&gt;&lt;td style=&quot;border-right:1px solid #000000;border-bottom:1px solid #000000;overflow:hidden;padding:0px 3px 0px 3px;vertical-align:bottom;text-align:center;&quot;&gt;2&lt;/td&gt;&lt;/tr&gt;&lt;tr style=&quot;height:21px;&quot;&gt;&lt;td style=&quot;border-right:1px solid #000000;border-bottom:1px solid #000000;border-left:1px solid #000000;overflow:hidden;padding:0px 3px 0px 3px;vertical-align:bottom;text-align:center;&quot;&gt;U&lt;/td&gt;&lt;td style=&quot;border-right:1px solid #000000;border-bottom:1px solid #000000;overflow:hidden;padding:0px 3px 0px 3px;vertical-align:bottom;text-align:center;&quot;&gt;S&lt;/td&gt;&lt;td style=&quot;border-right:1px solid #000000;border-bottom:1px solid #000000;overflow:hidden;padding:0px 3px 0px 3px;vertical-align:bottom;&quot;&gt;Implementación de diseño responsivo &lt;/td&gt;&lt;td style=&quot;border-right:1px solid #000000;border-bottom:1px solid #000000;overflow:hidden;padding:0px 3px 0px 3px;vertical-align:bottom;text-align:center;&quot;&gt;9/7/2025&lt;/td&gt;&lt;td style=&quot;border-right:1px solid #000000;border-bottom:1px solid #000000;overflow:hidden;padding:0px 3px 0px 3px;vertical-align:bottom;text-align:center;&quot;&gt;11/7/2025&lt;/td&gt;&lt;td style=&quot;border-right:1px solid #000000;border-bottom:1px solid #000000;overflow:hidden;padding:0px 3px 0px 3px;vertical-align:bottom;text-align:center;&quot;&gt;3&lt;/td&gt;&lt;/tr&gt;&lt;tr style=&quot;height:21px;&quot;&gt;&lt;td style=&quot;border-right:1px solid #000000;border-bottom:1px solid #000000;border-left:1px solid #000000;overflow:hidden;padding:0px 3px 0px 3px;vertical-align:bottom;text-align:center;&quot;&gt;V&lt;/td&gt;&lt;td style=&quot;border-right:1px solid #000000;border-bottom:1px solid #000000;overflow:hidden;padding:0px 3px 0px 3px;vertical-align:bottom;text-align:center;&quot;&gt;S&lt;/td&gt;&lt;td style=&quot;border-right:1px solid #000000;border-bottom:1px solid #000000;overflow:hidden;padding:0px 3px 0px 3px;vertical-align:bottom;&quot;&gt;Configuración del entorno de desarrollo&lt;/td&gt;&lt;td style=&quot;border-right:1px solid #000000;border-bottom:1px solid #000000;overflow:hidden;padding:0px 3px 0px 3px;vertical-align:bottom;text-align:center;&quot;&gt;8/7/2025&lt;/td&gt;&lt;td style=&quot;border-right:1px solid #000000;border-bottom:1px solid #000000;overflow:hidden;padding:0px 3px 0px 3px;vertical-align:bottom;text-align:center;&quot;&gt;11/7/2025&lt;/td&gt;&lt;td style=&quot;border-right:1px solid #000000;border-bottom:1px solid #000000;overflow:hidden;padding:0px 3px 0px 3px;vertical-align:bottom;text-align:center;&quot;&gt;4&lt;/td&gt;&lt;/tr&gt;&lt;tr style=&quot;height:21px;&quot;&gt;&lt;td style=&quot;border-right:1px solid #000000;border-bottom:1px solid #000000;border-left:1px solid #000000;overflow:hidden;padding:0px 3px 0px 3px;vertical-align:bottom;text-align:center;&quot;&gt;W&lt;/td&gt;&lt;td style=&quot;border-right:1px solid #000000;border-bottom:1px solid #000000;overflow:hidden;padding:0px 3px 0px 3px;vertical-align:bottom;text-align:center;&quot;&gt;V&lt;/td&gt;&lt;td style=&quot;border-right:1px solid #000000;border-bottom:1px solid #000000;overflow:hidden;padding:0px 3px 0px 3px;vertical-align:bottom;&quot;&gt;Gestión y administración de paquetes del sistema operativo&lt;/td&gt;&lt;td style=&quot;border-right:1px solid #000000;border-bottom:1px solid #000000;overflow:hidden;padding:0px 3px 0px 3px;vertical-align:bottom;text-align:center;&quot;&gt;7/7/2025&lt;/td&gt;&lt;td style=&quot;border-right:1px solid #000000;border-bottom:1px solid #000000;overflow:hidden;padding:0px 3px 0px 3px;vertical-align:bottom;text-align:center;&quot;&gt;7/7/2025&lt;/td&gt;&lt;td style=&quot;border-right:1px solid #000000;border-bottom:1px solid #000000;overflow:hidden;padding:0px 3px 0px 3px;vertical-align:bottom;text-align:center;&quot;&gt;1&lt;/td&gt;&lt;/tr&gt;&lt;tr style=&quot;height:21px;&quot;&gt;&lt;td style=&quot;border-right:1px solid #000000;border-bottom:1px solid #000000;border-left:1px solid #000000;overflow:hidden;padding:0px 3px 0px 3px;vertical-align:bottom;text-align:center;&quot;&gt;X&lt;/td&gt;&lt;td style=&quot;border-right:1px solid #000000;border-bottom:1px solid #000000;overflow:hidden;padding:0px 3px 0px 3px;vertical-align:bottom;text-align:center;&quot;&gt;W&lt;/td&gt;&lt;td style=&quot;border-right:1px solid #000000;border-bottom:1px solid #000000;overflow:hidden;padding:0px 3px 0px 3px;vertical-align:bottom;&quot;&gt;Manual de instalador SO Servidor&lt;/td&gt;&lt;td style=&quot;border-right:1px solid #000000;border-bottom:1px solid #000000;overflow:hidden;padding:0px 3px 0px 3px;vertical-align:bottom;text-align:center;&quot;&gt;28/6/2025&lt;/td&gt;&lt;td style=&quot;border-right:1px solid #000000;border-bottom:1px solid #000000;overflow:hidden;padding:0px 3px 0px 3px;vertical-align:bottom;text-align:center;&quot;&gt;28/6/2025&lt;/td&gt;&lt;td style=&quot;border-right:1px solid #000000;border-bottom:1px solid #000000;overflow:hidden;padding:0px 3px 0px 3px;vertical-align:bottom;text-align:center;&quot;&gt;1&lt;/td&gt;&lt;/tr&gt;&lt;tr style=&quot;height:21px;&quot;&gt;&lt;td style=&quot;border-right:1px solid #000000;border-bottom:1px solid #000000;border-left:1px solid #000000;overflow:hidden;padding:0px 3px 0px 3px;vertical-align:bottom;text-align:center;&quot;&gt;Y&lt;/td&gt;&lt;td style=&quot;border-right:1px solid #000000;border-bottom:1px solid #000000;overflow:hidden;padding:0px 3px 0px 3px;vertical-align:bottom;text-align:center;&quot;&gt;D&lt;/td&gt;&lt;td style=&quot;border-right:1px solid #000000;border-bottom:1px solid #000000;overflow:hidden;padding:0px 3px 0px 3px;vertical-align:bottom;&quot;&gt;Implementación del modelo de desarrollo (Tradicional) &lt;/td&gt;&lt;td style=&quot;border-right:1px solid #000000;border-bottom:1px solid #000000;overflow:hidden;padding:0px 3px 0px 3px;vertical-align:bottom;text-align:center;&quot;&gt;24/6/2025&lt;/td&gt;&lt;td style=&quot;border-right:1px solid #000000;border-bottom:1px solid #000000;overflow:hidden;padding:0px 3px 0px 3px;vertical-align:bottom;text-align:center;&quot;&gt;30/6/2025&lt;/td&gt;&lt;td style=&quot;border-right:1px solid #000000;border-bottom:1px solid #000000;overflow:hidden;padding:0px 3px 0px 3px;vertical-align:bottom;text-align:center;&quot;&gt;7&lt;/td&gt;&lt;/tr&gt;&lt;tr style=&quot;height:21px;&quot;&gt;&lt;td style=&quot;border-right:1px solid #000000;border-bottom:1px solid #000000;border-left:1px solid #000000;overflow:hidden;padding:0px 3px 0px 3px;vertical-align:bottom;text-align:center;&quot;&gt;Z&lt;/td&gt;&lt;td style=&quot;border-right:1px solid #000000;border-bottom:1px solid #000000;overflow:hidden;padding:0px 3px 0px 3px;vertical-align:bottom;text-align:center;&quot;&gt;X&lt;/td&gt;&lt;td style=&quot;border-right:1px solid #000000;border-bottom:1px solid #000000;overflow:hidden;padding:0px 3px 0px 3px;vertical-align:bottom;&quot;&gt;Relevamiento de sistema operativo para el servidor &lt;/td&gt;&lt;td style=&quot;border-right:1px solid #000000;border-bottom:1px solid #000000;overflow:hidden;padding:0px 3px 0px 3px;vertical-align:bottom;text-align:center;&quot;&gt;7/7/2025&lt;/td&gt;&lt;td style=&quot;border-right:1px solid #000000;border-bottom:1px solid #000000;overflow:hidden;padding:0px 3px 0px 3px;vertical-align:bottom;text-align:center;&quot;&gt;8/7/2025&lt;/td&gt;&lt;td style=&quot;border-right:1px solid #000000;border-bottom:1px solid #000000;overflow:hidden;padding:0px 3px 0px 3px;vertical-align:bottom;text-align:center;&quot;&gt;2&lt;/td&gt;&lt;/tr&gt;&lt;/tbody&gt;&lt;/table&gt;" link="&lt;table xmlns=&quot;http://www.w3.org/1999/xhtml&quot; cellspacing=&quot;0&quot; cellpadding=&quot;0&quot; dir=&quot;ltr&quot; border=&quot;1&quot; style=&quot;table-layout:fixed;font-size:11pt;font-family:Calibri;width:0px;border-collapse:collapse;border:none&quot; data-sheets-root=&quot;1&quot; data-sheets-baot=&quot;1&quot;&gt;&lt;colgroup&gt;&lt;col width=&quot;64&quot;&gt;&lt;col width=&quot;143&quot;&gt;&lt;col width=&quot;384&quot;&gt;&lt;col width=&quot;82&quot;&gt;&lt;col width=&quot;82&quot;&gt;&lt;col width=&quot;82&quot;&gt;&lt;/colgroup&gt;&lt;tbody&gt;&lt;tr style=&quot;height:20px;&quot;&gt;&lt;td style=&quot;border-top:1px solid #000000;border-right:1px solid #000000;border-bottom:1px solid #000000;border-left:1px solid #000000;overflow:hidden;padding:0px 3px 0px 3px;vertical-align:bottom;font-weight:bold;text-align:center;&quot;&gt;Actividad&lt;/td&gt;&lt;td style=&quot;border-top:1px solid #000000;border-right:1px solid #000000;border-bottom:1px solid #000000;overflow:hidden;padding:0px 3px 0px 3px;vertical-align:bottom;font-weight:bold;text-align:center;&quot;&gt;Actividad Predecesora&lt;/td&gt;&lt;td style=&quot;border-top:1px solid #000000;border-right:1px solid #000000;border-bottom:1px solid #000000;overflow:hidden;padding:0px 3px 0px 3px;vertical-align:bottom;font-weight:bold;&quot;&gt;Nombre  &lt;/td&gt;&lt;td style=&quot;border-top:1px solid #000000;border-right:1px solid #000000;border-bottom:1px solid #000000;overflow:hidden;padding:0px 3px 0px 3px;vertical-align:bottom;font-weight:bold;text-align:center;&quot;&gt;inicio &lt;/td&gt;&lt;td style=&quot;border-top:1px solid #000000;border-right:1px solid #000000;border-bottom:1px solid #000000;overflow:hidden;padding:0px 3px 0px 3px;vertical-align:bottom;font-weight:bold;text-align:center;&quot;&gt;final&lt;/td&gt;&lt;td style=&quot;border-top:1px solid #000000;border-right:1px solid #000000;border-bottom:1px solid #000000;overflow:hidden;padding:0px 3px 0px 3px;vertical-align:bottom;font-weight:bold;text-align:center;&quot;&gt;Tiempo&lt;/td&gt;&lt;/tr&gt;&lt;tr style=&quot;height:20px;&quot;&gt;&lt;td style=&quot;border-right:1px solid #000000;border-bottom:1px solid #000000;border-left:1px solid #000000;overflow:hidden;padding:0px 3px 0px 3px;vertical-align:bottom;text-align:center;&quot;&gt;A&lt;/td&gt;&lt;td style=&quot;border-right:1px solid #000000;border-bottom:1px solid #000000;overflow:hidden;padding:0px 3px 0px 3px;vertical-align:bottom;text-align:center;&quot;&gt;-&lt;/td&gt;&lt;td style=&quot;border-right:1px solid #000000;border-bottom:1px solid #000000;overflow:hidden;padding:0px 3px 0px 3px;vertical-align:bottom;&quot;&gt;Creación de repositorio en github &lt;/td&gt;&lt;td style=&quot;border-right:1px solid #000000;border-bottom:1px solid #000000;overflow:hidden;padding:0px 3px 0px 3px;vertical-align:bottom;text-align:center;&quot;&gt;29/5/2025&lt;/td&gt;&lt;td style=&quot;border-right:1px solid #000000;border-bottom:1px solid #000000;overflow:hidden;padding:0px 3px 0px 3px;vertical-align:bottom;text-align:center;&quot;&gt;29/5/2025&lt;/td&gt;&lt;td style=&quot;border-right:1px solid #000000;border-bottom:1px solid #000000;overflow:hidden;padding:0px 3px 0px 3px;vertical-align:bottom;text-align:center;&quot;&gt;1&lt;/td&gt;&lt;/tr&gt;&lt;tr style=&quot;height:20px;&quot;&gt;&lt;td style=&quot;border-right:1px solid #000000;border-bottom:1px solid #000000;border-left:1px solid #000000;overflow:hidden;padding:0px 3px 0px 3px;vertical-align:bottom;text-align:center;&quot;&gt;AB&lt;/td&gt;&lt;td style=&quot;border-right:1px solid #000000;border-bottom:1px solid #000000;overflow:hidden;padding:0px 3px 0px 3px;vertical-align:bottom;text-align:center;&quot;&gt;C&lt;/td&gt;&lt;td style=&quot;border-right:1px solid #000000;border-bottom:1px solid #000000;overflow:hidden;padding:0px 3px 0px 3px;vertical-align:bottom;&quot;&gt;Estudio de factibiliidades&lt;/td&gt;&lt;td style=&quot;border-right:1px solid #000000;border-bottom:1px solid #000000;overflow:hidden;padding:0px 3px 0px 3px;vertical-align:bottom;text-align:center;&quot;&gt;19/6/2025&lt;/td&gt;&lt;td style=&quot;border-right:1px solid #000000;border-bottom:1px solid #000000;overflow:hidden;padding:0px 3px 0px 3px;vertical-align:bottom;text-align:center;&quot;&gt;19/6/2025&lt;/td&gt;&lt;td style=&quot;border-right:1px solid #000000;border-bottom:1px solid #000000;overflow:hidden;padding:0px 3px 0px 3px;vertical-align:bottom;text-align:center;&quot;&gt;1&lt;/td&gt;&lt;/tr&gt;&lt;tr style=&quot;height:20px;&quot;&gt;&lt;td style=&quot;border-right:1px solid #000000;border-bottom:1px solid #000000;border-left:1px solid #000000;overflow:hidden;padding:0px 3px 0px 3px;vertical-align:bottom;text-align:center;&quot;&gt;AC&lt;/td&gt;&lt;td style=&quot;border-right:1px solid #000000;border-bottom:1px solid #000000;overflow:hidden;padding:0px 3px 0px 3px;vertical-align:bottom;text-align:center;&quot;&gt;AB&lt;/td&gt;&lt;td style=&quot;border-right:1px solid #000000;border-bottom:1px solid #000000;overflow:hidden;padding:0px 3px 0px 3px;vertical-align:bottom;&quot;&gt;Justificación técnologica &lt;/td&gt;&lt;td style=&quot;border-right:1px solid #000000;border-bottom:1px solid #000000;overflow:hidden;padding:0px 3px 0px 3px;vertical-align:bottom;text-align:center;&quot;&gt;21/6/2025&lt;/td&gt;&lt;td style=&quot;border-right:1px solid #000000;border-bottom:1px solid #000000;overflow:hidden;padding:0px 3px 0px 3px;vertical-align:bottom;text-align:center;&quot;&gt;24/6/2025&lt;/td&gt;&lt;td style=&quot;border-right:1px solid #000000;border-bottom:1px solid #000000;overflow:hidden;padding:0px 3px 0px 3px;vertical-align:bottom;text-align:center;&quot;&gt;4&lt;/td&gt;&lt;/tr&gt;&lt;tr style=&quot;height:20px;&quot;&gt;&lt;td style=&quot;border-right:1px solid #000000;border-bottom:1px solid #000000;border-left:1px solid #000000;overflow:hidden;padding:0px 3px 0px 3px;vertical-align:bottom;text-align:center;&quot;&gt;AD&lt;/td&gt;&lt;td style=&quot;border-right:1px solid #000000;border-bottom:1px solid #000000;overflow:hidden;padding:0px 3px 0px 3px;vertical-align:bottom;text-align:center;&quot;&gt;Z&lt;/td&gt;&lt;td style=&quot;border-right:1px solid #000000;border-bottom:1px solid #000000;overflow:hidden;padding:0px 3px 0px 3px;vertical-align:bottom;&quot;&gt;Instalación y configuración de la red&lt;/td&gt;&lt;td style=&quot;border-right:1px solid #000000;border-bottom:1px solid #000000;overflow:hidden;padding:0px 3px 0px 3px;vertical-align:bottom;text-align:center;&quot;&gt;7/7/2025&lt;/td&gt;&lt;td style=&quot;border-right:1px solid #000000;border-bottom:1px solid #000000;overflow:hidden;padding:0px 3px 0px 3px;vertical-align:bottom;text-align:center;&quot;&gt;11/7/2025&lt;/td&gt;&lt;td style=&quot;border-right:1px solid #000000;border-bottom:1px solid #000000;overflow:hidden;padding:0px 3px 0px 3px;vertical-align:bottom;text-align:center;&quot;&gt;5&lt;/td&gt;&lt;/tr&gt;&lt;tr style=&quot;height:20px;&quot;&gt;&lt;td style=&quot;border-right:1px solid #000000;border-bottom:1px solid #000000;border-left:1px solid #000000;overflow:hidden;padding:0px 3px 0px 3px;vertical-align:bottom;text-align:center;&quot;&gt;AE&lt;/td&gt;&lt;td style=&quot;border-right:1px solid #000000;border-bottom:1px solid #000000;overflow:hidden;padding:0px 3px 0px 3px;vertical-align:bottom;text-align:center;&quot;&gt;AD&lt;/td&gt;&lt;td style=&quot;border-right:1px solid #000000;border-bottom:1px solid #000000;overflow:hidden;padding:0px 3px 0px 3px;vertical-align:bottom;&quot;&gt;Documentación &lt;/td&gt;&lt;td style=&quot;border-right:1px solid #000000;border-bottom:1px solid #000000;overflow:hidden;padding:0px 3px 0px 3px;vertical-align:bottom;text-align:center;&quot;&gt;23/6/2025&lt;/td&gt;&lt;td style=&quot;border-right:1px solid #000000;border-bottom:1px solid #000000;overflow:hidden;padding:0px 3px 0px 3px;vertical-align:bottom;text-align:center;&quot;&gt;23/6/2025&lt;/td&gt;&lt;td style=&quot;border-right:1px solid #000000;border-bottom:1px solid #000000;overflow:hidden;padding:0px 3px 0px 3px;vertical-align:bottom;text-align:center;&quot;&gt;1&lt;/td&gt;&lt;/tr&gt;&lt;tr style=&quot;height:20px;&quot;&gt;&lt;td style=&quot;border-right:1px solid #000000;border-bottom:1px solid #000000;border-left:1px solid #000000;overflow:hidden;padding:0px 3px 0px 3px;vertical-align:bottom;text-align:center;&quot;&gt;AE&lt;/td&gt;&lt;td style=&quot;border-right:1px solid #000000;border-bottom:1px solid #000000;overflow:hidden;padding:0px 3px 0px 3px;vertical-align:bottom;text-align:center;&quot;&gt;AD&lt;/td&gt;&lt;td style=&quot;border-right:1px solid #000000;border-bottom:1px solid #000000;overflow:hidden;padding:0px 3px 0px 3px;vertical-align:bottom;&quot;&gt;Subir todo el proyecto hasta la primera entrega &lt;/td&gt;&lt;td style=&quot;border-right:1px solid #000000;border-bottom:1px solid #000000;overflow:hidden;padding:0px 3px 0px 3px;vertical-align:bottom;text-align:center;&quot;&gt;11/7/2025&lt;/td&gt;&lt;td style=&quot;border-right:1px solid #000000;border-bottom:1px solid #000000;overflow:hidden;padding:0px 3px 0px 3px;vertical-align:bottom;text-align:center;&quot;&gt;11/7/2025&lt;/td&gt;&lt;td style=&quot;border-right:1px solid #000000;border-bottom:1px solid #000000;overflow:hidden;padding:0px 3px 0px 3px;vertical-align:bottom;text-align:center;&quot;&gt;1&lt;/td&gt;&lt;/tr&gt;&lt;tr style=&quot;height:20px;&quot;&gt;&lt;td style=&quot;border-right:1px solid #000000;border-bottom:1px solid #000000;border-left:1px solid #000000;overflow:hidden;padding:0px 3px 0px 3px;vertical-align:bottom;text-align:center;&quot;&gt;B&lt;/td&gt;&lt;td style=&quot;border-right:1px solid #000000;border-bottom:1px solid #000000;overflow:hidden;padding:0px 3px 0px 3px;vertical-align:bottom;text-align:center;&quot;&gt;-&lt;/td&gt;&lt;td style=&quot;border-right:1px solid #000000;border-bottom:1px solid #000000;overflow:hidden;padding:0px 3px 0px 3px;vertical-align:bottom;&quot;&gt;Relevamiento &lt;/td&gt;&lt;td style=&quot;border-right:1px solid #000000;border-bottom:1px solid #000000;overflow:hidden;padding:0px 3px 0px 3px;vertical-align:bottom;text-align:center;&quot;&gt;14/6/2025&lt;/td&gt;&lt;td style=&quot;border-right:1px solid #000000;border-bottom:1px solid #000000;overflow:hidden;padding:0px 3px 0px 3px;vertical-align:bottom;text-align:center;&quot;&gt;14/6/2025&lt;/td&gt;&lt;td style=&quot;border-right:1px solid #000000;border-bottom:1px solid #000000;overflow:hidden;padding:0px 3px 0px 3px;vertical-align:bottom;text-align:center;&quot;&gt;1&lt;/td&gt;&lt;/tr&gt;&lt;tr style=&quot;height:20px;&quot;&gt;&lt;td style=&quot;border-right:1px solid #000000;border-bottom:1px solid #000000;border-left:1px solid #000000;overflow:hidden;padding:0px 3px 0px 3px;vertical-align:bottom;text-align:center;&quot;&gt;C&lt;/td&gt;&lt;td style=&quot;border-right:1px solid #000000;border-bottom:1px solid #000000;overflow:hidden;padding:0px 3px 0px 3px;vertical-align:bottom;text-align:center;&quot;&gt;B&lt;/td&gt;&lt;td style=&quot;border-right:1px solid #000000;border-bottom:1px solid #000000;overflow:hidden;padding:0px 3px 0px 3px;vertical-align:bottom;&quot;&gt;Especificación de requerimientos &lt;/td&gt;&lt;td style=&quot;border-right:1px solid #000000;border-bottom:1px solid #000000;overflow:hidden;padding:0px 3px 0px 3px;vertical-align:bottom;text-align:center;&quot;&gt;14/6/2025&lt;/td&gt;&lt;td style=&quot;border-right:1px solid #000000;border-bottom:1px solid #000000;overflow:hidden;padding:0px 3px 0px 3px;vertical-align:bottom;text-align:center;&quot;&gt;14/6/2025&lt;/td&gt;&lt;td style=&quot;border-right:1px solid #000000;border-bottom:1px solid #000000;overflow:hidden;padding:0px 3px 0px 3px;vertical-align:bottom;text-align:center;&quot;&gt;1&lt;/td&gt;&lt;/tr&gt;&lt;tr style=&quot;height:20px;&quot;&gt;&lt;td style=&quot;border-right:1px solid #000000;border-bottom:1px solid #000000;border-left:1px solid #000000;overflow:hidden;padding:0px 3px 0px 3px;vertical-align:bottom;text-align:center;&quot;&gt;D&lt;/td&gt;&lt;td style=&quot;border-right:1px solid #000000;border-bottom:1px solid #000000;overflow:hidden;padding:0px 3px 0px 3px;vertical-align:bottom;text-align:center;&quot;&gt;C&lt;/td&gt;&lt;td style=&quot;border-right:1px solid #000000;border-bottom:1px solid #000000;overflow:hidden;padding:0px 3px 0px 3px;vertical-align:bottom;&quot;&gt;Cronograma inicial del proyecto &lt;/td&gt;&lt;td style=&quot;border-right:1px solid #000000;border-bottom:1px solid #000000;overflow:hidden;padding:0px 3px 0px 3px;vertical-align:bottom;text-align:center;&quot;&gt;11/6/2025&lt;/td&gt;&lt;td style=&quot;border-right:1px solid #000000;border-bottom:1px solid #000000;overflow:hidden;padding:0px 3px 0px 3px;vertical-align:bottom;text-align:center;&quot;&gt;11/6/2025&lt;/td&gt;&lt;td style=&quot;border-right:1px solid #000000;border-bottom:1px solid #000000;overflow:hidden;padding:0px 3px 0px 3px;vertical-align:bottom;text-align:center;&quot;&gt;1&lt;/td&gt;&lt;/tr&gt;&lt;tr style=&quot;height:20px;&quot;&gt;&lt;td style=&quot;border-right:1px solid #000000;border-bottom:1px solid #000000;border-left:1px solid #000000;overflow:hidden;padding:0px 3px 0px 3px;vertical-align:bottom;text-align:center;&quot;&gt;E&lt;/td&gt;&lt;td style=&quot;border-right:1px solid #000000;border-bottom:1px solid #000000;overflow:hidden;padding:0px 3px 0px 3px;vertical-align:bottom;text-align:center;&quot;&gt;D&lt;/td&gt;&lt;td style=&quot;border-right:1px solid #000000;border-bottom:1px solid #000000;overflow:hidden;padding:0px 3px 0px 3px;vertical-align:bottom;&quot;&gt;Reglamento interno &lt;/td&gt;&lt;td style=&quot;border-right:1px solid #000000;border-bottom:1px solid #000000;overflow:hidden;padding:0px 3px 0px 3px;vertical-align:bottom;text-align:center;&quot;&gt;19/6/2025&lt;/td&gt;&lt;td style=&quot;border-right:1px solid #000000;border-bottom:1px solid #000000;overflow:hidden;padding:0px 3px 0px 3px;vertical-align:bottom;text-align:center;&quot;&gt;19/6/2025&lt;/td&gt;&lt;td style=&quot;border-right:1px solid #000000;border-bottom:1px solid #000000;overflow:hidden;padding:0px 3px 0px 3px;vertical-align:bottom;text-align:center;&quot;&gt;1&lt;/td&gt;&lt;/tr&gt;&lt;tr style=&quot;height:20px;&quot;&gt;&lt;td style=&quot;border-right:1px solid #000000;border-bottom:1px solid #000000;border-left:1px solid #000000;overflow:hidden;padding:0px 3px 0px 3px;vertical-align:bottom;text-align:center;&quot;&gt;F&lt;/td&gt;&lt;td style=&quot;border-right:1px solid #000000;border-bottom:1px solid #000000;overflow:hidden;padding:0px 3px 0px 3px;vertical-align:bottom;text-align:center;&quot;&gt;B&lt;/td&gt;&lt;td style=&quot;border-right:1px solid #000000;border-bottom:1px solid #000000;overflow:hidden;padding:0px 3px 0px 3px;vertical-align:bottom;&quot;&gt;Localización de la empresa &lt;/td&gt;&lt;td style=&quot;border-right:1px solid #000000;border-bottom:1px solid #000000;overflow:hidden;padding:0px 3px 0px 3px;vertical-align:bottom;text-align:center;&quot;&gt;14/6/2025&lt;/td&gt;&lt;td style=&quot;border-right:1px solid #000000;border-bottom:1px solid #000000;overflow:hidden;padding:0px 3px 0px 3px;vertical-align:bottom;text-align:center;&quot;&gt;14/6/2025&lt;/td&gt;&lt;td style=&quot;border-right:1px solid #000000;border-bottom:1px solid #000000;overflow:hidden;padding:0px 3px 0px 3px;vertical-align:bottom;text-align:center;&quot;&gt;1&lt;/td&gt;&lt;/tr&gt;&lt;tr style=&quot;height:20px;&quot;&gt;&lt;td style=&quot;border-right:1px solid #000000;border-bottom:1px solid #000000;border-left:1px solid #000000;overflow:hidden;padding:0px 3px 0px 3px;vertical-align:bottom;text-align:center;&quot;&gt;G&lt;/td&gt;&lt;td style=&quot;border-right:1px solid #000000;border-bottom:1px solid #000000;overflow:hidden;padding:0px 3px 0px 3px;vertical-align:bottom;text-align:center;&quot;&gt;B&lt;/td&gt;&lt;td style=&quot;border-right:1px solid #000000;border-bottom:1px solid #000000;overflow:hidden;padding:0px 3px 0px 3px;vertical-align:bottom;&quot;&gt;Forma Juridica &lt;/td&gt;&lt;td style=&quot;border-right:1px solid #000000;border-bottom:1px solid #000000;overflow:hidden;padding:0px 3px 0px 3px;vertical-align:bottom;text-align:center;&quot;&gt;14/6/2025&lt;/td&gt;&lt;td style=&quot;border-right:1px solid #000000;border-bottom:1px solid #000000;overflow:hidden;padding:0px 3px 0px 3px;vertical-align:bottom;text-align:center;&quot;&gt;14/6/2025&lt;/td&gt;&lt;td style=&quot;border-right:1px solid #000000;border-bottom:1px solid #000000;overflow:hidden;padding:0px 3px 0px 3px;vertical-align:bottom;text-align:center;&quot;&gt;1&lt;/td&gt;&lt;/tr&gt;&lt;tr style=&quot;height:20px;&quot;&gt;&lt;td style=&quot;border-right:1px solid #000000;border-bottom:1px solid #000000;border-left:1px solid #000000;overflow:hidden;padding:0px 3px 0px 3px;vertical-align:bottom;text-align:center;&quot;&gt;H&lt;/td&gt;&lt;td style=&quot;border-right:1px solid #000000;border-bottom:1px solid #000000;overflow:hidden;padding:0px 3px 0px 3px;vertical-align:bottom;text-align:center;&quot;&gt;B&lt;/td&gt;&lt;td style=&quot;border-right:1px solid #000000;border-bottom:1px solid #000000;overflow:hidden;padding:0px 3px 0px 3px;vertical-align:bottom;&quot;&gt;Documentación de inicio &lt;/td&gt;&lt;td style=&quot;border-right:1px solid #000000;border-bottom:1px solid #000000;overflow:hidden;padding:0px 3px 0px 3px;vertical-align:bottom;text-align:center;&quot;&gt;20/5/2025&lt;/td&gt;&lt;td style=&quot;border-right:1px solid #000000;border-bottom:1px solid #000000;overflow:hidden;padding:0px 3px 0px 3px;vertical-align:bottom;text-align:center;&quot;&gt;2/6/2025&lt;/td&gt;&lt;td style=&quot;border-right:1px solid #000000;border-bottom:1px solid #000000;overflow:hidden;padding:0px 3px 0px 3px;vertical-align:bottom;text-align:center;&quot;&gt;14&lt;/td&gt;&lt;/tr&gt;&lt;tr style=&quot;height:20px;&quot;&gt;&lt;td style=&quot;border-right:1px solid #000000;border-bottom:1px solid #000000;border-left:1px solid #000000;overflow:hidden;padding:0px 3px 0px 3px;vertical-align:bottom;text-align:center;&quot;&gt;I&lt;/td&gt;&lt;td style=&quot;border-right:1px solid #000000;border-bottom:1px solid #000000;overflow:hidden;padding:0px 3px 0px 3px;vertical-align:bottom;text-align:center;&quot;&gt;G&lt;/td&gt;&lt;td style=&quot;border-right:1px solid #000000;border-bottom:1px solid #000000;overflow:hidden;padding:0px 3px 0px 3px;vertical-align:bottom;&quot;&gt;Nombre de empresa y fundamentción &lt;/td&gt;&lt;td style=&quot;border-right:1px solid #000000;border-bottom:1px solid #000000;overflow:hidden;padding:0px 3px 0px 3px;vertical-align:bottom;text-align:center;&quot;&gt;24/5/2025&lt;/td&gt;&lt;td style=&quot;border-right:1px solid #000000;border-bottom:1px solid #000000;overflow:hidden;padding:0px 3px 0px 3px;vertical-align:bottom;text-align:center;&quot;&gt;24/5/2025&lt;/td&gt;&lt;td style=&quot;border-right:1px solid #000000;border-bottom:1px solid #000000;overflow:hidden;padding:0px 3px 0px 3px;vertical-align:bottom;text-align:center;&quot;&gt;1&lt;/td&gt;&lt;/tr&gt;&lt;tr style=&quot;height:20px;&quot;&gt;&lt;td style=&quot;border-right:1px solid #000000;border-bottom:1px solid #000000;border-left:1px solid #000000;overflow:hidden;padding:0px 3px 0px 3px;vertical-align:bottom;text-align:center;&quot;&gt;J&lt;/td&gt;&lt;td style=&quot;border-right:1px solid #000000;border-bottom:1px solid #000000;overflow:hidden;padding:0px 3px 0px 3px;vertical-align:bottom;text-align:center;&quot;&gt;D&lt;/td&gt;&lt;td style=&quot;border-right:1px solid #000000;border-bottom:1px solid #000000;overflow:hidden;padding:0px 3px 0px 3px;vertical-align:bottom;&quot;&gt;Objetivos generales de la empresa &lt;/td&gt;&lt;td style=&quot;border-right:1px solid #000000;border-bottom:1px solid #000000;overflow:hidden;padding:0px 3px 0px 3px;vertical-align:bottom;text-align:center;&quot;&gt;24/5/2025&lt;/td&gt;&lt;td style=&quot;border-right:1px solid #000000;border-bottom:1px solid #000000;overflow:hidden;padding:0px 3px 0px 3px;vertical-align:bottom;text-align:center;&quot;&gt;24/5/2025&lt;/td&gt;&lt;td style=&quot;border-right:1px solid #000000;border-bottom:1px solid #000000;overflow:hidden;padding:0px 3px 0px 3px;vertical-align:bottom;text-align:center;&quot;&gt;1&lt;/td&gt;&lt;/tr&gt;&lt;tr style=&quot;height:20px;&quot;&gt;&lt;td style=&quot;border-right:1px solid #000000;border-bottom:1px solid #000000;border-left:1px solid #000000;overflow:hidden;padding:0px 3px 0px 3px;vertical-align:bottom;text-align:center;&quot;&gt;K&lt;/td&gt;&lt;td style=&quot;border-right:1px solid #000000;border-bottom:1px solid #000000;overflow:hidden;padding:0px 3px 0px 3px;vertical-align:bottom;text-align:center;&quot;&gt;C&lt;/td&gt;&lt;td style=&quot;border-right:1px solid #000000;border-bottom:1px solid #000000;overflow:hidden;padding:0px 3px 0px 3px;vertical-align:bottom;&quot;&gt;Público objetivo&lt;/td&gt;&lt;td style=&quot;border-right:1px solid #000000;border-bottom:1px solid #000000;overflow:hidden;padding:0px 3px 0px 3px;vertical-align:bottom;text-align:center;&quot;&gt;25/5/2025&lt;/td&gt;&lt;td style=&quot;border-right:1px solid #000000;border-bottom:1px solid #000000;overflow:hidden;padding:0px 3px 0px 3px;vertical-align:bottom;text-align:center;&quot;&gt;25/5/2025&lt;/td&gt;&lt;td style=&quot;border-right:1px solid #000000;border-bottom:1px solid #000000;overflow:hidden;padding:0px 3px 0px 3px;vertical-align:bottom;text-align:center;&quot;&gt;1&lt;/td&gt;&lt;/tr&gt;&lt;tr style=&quot;height:20px;&quot;&gt;&lt;td style=&quot;border-right:1px solid #000000;border-bottom:1px solid #000000;border-left:1px solid #000000;overflow:hidden;padding:0px 3px 0px 3px;vertical-align:bottom;text-align:center;&quot;&gt;L&lt;/td&gt;&lt;td style=&quot;border-right:1px solid #000000;border-bottom:1px solid #000000;overflow:hidden;padding:0px 3px 0px 3px;vertical-align:bottom;text-align:center;&quot;&gt;I&lt;/td&gt;&lt;td style=&quot;border-right:1px solid #000000;border-bottom:1px solid #000000;overflow:hidden;padding:0px 3px 0px 3px;vertical-align:bottom;&quot;&gt;Creación logotipo, isotipo y slogan &lt;/td&gt;&lt;td style=&quot;border-right:1px solid #000000;border-bottom:1px solid #000000;overflow:hidden;padding:0px 3px 0px 3px;vertical-align:bottom;text-align:center;&quot;&gt;25/5/2025&lt;/td&gt;&lt;td style=&quot;border-right:1px solid #000000;border-bottom:1px solid #000000;overflow:hidden;padding:0px 3px 0px 3px;vertical-align:bottom;text-align:center;&quot;&gt;25/5/2025&lt;/td&gt;&lt;td style=&quot;border-right:1px solid #000000;border-bottom:1px solid #000000;overflow:hidden;padding:0px 3px 0px 3px;vertical-align:bottom;text-align:center;&quot;&gt;1&lt;/td&gt;&lt;/tr&gt;&lt;tr style=&quot;height:20px;&quot;&gt;&lt;td style=&quot;border-right:1px solid #000000;border-bottom:1px solid #000000;border-left:1px solid #000000;overflow:hidden;padding:0px 3px 0px 3px;vertical-align:bottom;text-align:center;&quot;&gt;M&lt;/td&gt;&lt;td style=&quot;border-right:1px solid #000000;border-bottom:1px solid #000000;overflow:hidden;padding:0px 3px 0px 3px;vertical-align:bottom;text-align:center;&quot;&gt;J&lt;/td&gt;&lt;td style=&quot;border-right:1px solid #000000;border-bottom:1px solid #000000;overflow:hidden;padding:0px 3px 0px 3px;vertical-align:bottom;&quot;&gt;Misión, Visión y valores de la empresa &lt;/td&gt;&lt;td style=&quot;border-right:1px solid #000000;border-bottom:1px solid #000000;overflow:hidden;padding:0px 3px 0px 3px;vertical-align:bottom;text-align:center;&quot;&gt;25/5/2025&lt;/td&gt;&lt;td style=&quot;border-right:1px solid #000000;border-bottom:1px solid #000000;overflow:hidden;padding:0px 3px 0px 3px;vertical-align:bottom;text-align:center;&quot;&gt;25/5/2025&lt;/td&gt;&lt;td style=&quot;border-right:1px solid #000000;border-bottom:1px solid #000000;overflow:hidden;padding:0px 3px 0px 3px;vertical-align:bottom;text-align:center;&quot;&gt;1&lt;/td&gt;&lt;/tr&gt;&lt;tr style=&quot;height:20px;&quot;&gt;&lt;td style=&quot;border-right:1px solid #000000;border-bottom:1px solid #000000;border-left:1px solid #000000;overflow:hidden;padding:0px 3px 0px 3px;vertical-align:bottom;text-align:center;&quot;&gt;N&lt;/td&gt;&lt;td style=&quot;border-right:1px solid #000000;border-bottom:1px solid #000000;overflow:hidden;padding:0px 3px 0px 3px;vertical-align:bottom;text-align:center;&quot;&gt;M&lt;/td&gt;&lt;td style=&quot;border-right:1px solid #000000;border-bottom:1px solid #000000;overflow:hidden;padding:0px 3px 0px 3px;vertical-align:bottom;&quot;&gt;Documentación obligatoria &lt;/td&gt;&lt;td style=&quot;border-right:1px solid #000000;border-bottom:1px solid #000000;overflow:hidden;padding:0px 3px 0px 3px;vertical-align:bottom;text-align:center;&quot;&gt;25/6/2025&lt;/td&gt;&lt;td style=&quot;border-right:1px solid #000000;border-bottom:1px solid #000000;overflow:hidden;padding:0px 3px 0px 3px;vertical-align:bottom;text-align:center;&quot;&gt;25/6/2025&lt;/td&gt;&lt;td style=&quot;border-right:1px solid #000000;border-bottom:1px solid #000000;overflow:hidden;padding:0px 3px 0px 3px;vertical-align:bottom;text-align:center;&quot;&gt;1&lt;/td&gt;&lt;/tr&gt;&lt;tr style=&quot;height:21px;&quot;&gt;&lt;td style=&quot;border-right:1px solid #000000;border-bottom:1px solid #000000;border-left:1px solid #000000;overflow:hidden;padding:0px 3px 0px 3px;vertical-align:bottom;text-align:center;&quot;&gt;O&lt;/td&gt;&lt;td style=&quot;border-right:1px solid #000000;border-bottom:1px solid #000000;overflow:hidden;padding:0px 3px 0px 3px;vertical-align:bottom;text-align:center;&quot;&gt;N&lt;/td&gt;&lt;td style=&quot;border-right:1px solid #000000;border-bottom:1px solid #000000;overflow:hidden;padding:0px 3px 0px 3px;vertical-align:bottom;&quot;&gt;Readacción academica &lt;/td&gt;&lt;td style=&quot;border-right:1px solid #000000;border-bottom:1px solid #000000;overflow:hidden;padding:0px 3px 0px 3px;vertical-align:bottom;text-align:center;&quot;&gt;25/6/2025&lt;/td&gt;&lt;td style=&quot;border-right:1px solid #000000;border-bottom:1px solid #000000;overflow:hidden;padding:0px 3px 0px 3px;vertical-align:bottom;text-align:center;&quot;&gt;25/6/2025&lt;/td&gt;&lt;td style=&quot;border-right:1px solid #000000;border-bottom:1px solid #000000;overflow:hidden;padding:0px 3px 0px 3px;vertical-align:bottom;text-align:center;&quot;&gt;1&lt;/td&gt;&lt;/tr&gt;&lt;tr style=&quot;height:21px;&quot;&gt;&lt;td style=&quot;border-right:1px solid #000000;border-bottom:1px solid #000000;border-left:1px solid #000000;overflow:hidden;padding:0px 3px 0px 3px;vertical-align:bottom;text-align:center;&quot;&gt;P&lt;/td&gt;&lt;td style=&quot;border-right:1px solid #000000;border-bottom:1px solid #000000;overflow:hidden;padding:0px 3px 0px 3px;vertical-align:bottom;text-align:center;&quot;&gt;L&lt;/td&gt;&lt;td style=&quot;border-right:1px solid #000000;border-bottom:1px solid #000000;overflow:hidden;padding:0px 3px 0px 3px;vertical-align:bottom;&quot;&gt;Prototipado de la aplicación &lt;/td&gt;&lt;td style=&quot;border-right:1px solid #000000;border-bottom:1px solid #000000;overflow:hidden;padding:0px 3px 0px 3px;vertical-align:bottom;text-align:center;&quot;&gt;24/6/2025&lt;/td&gt;&lt;td style=&quot;border-right:1px solid #000000;border-bottom:1px solid #000000;overflow:hidden;padding:0px 3px 0px 3px;vertical-align:bottom;text-align:center;&quot;&gt;7/7/2025&lt;/td&gt;&lt;td style=&quot;border-right:1px solid #000000;border-bottom:1px solid #000000;overflow:hidden;padding:0px 3px 0px 3px;vertical-align:bottom;text-align:center;&quot;&gt;14&lt;/td&gt;&lt;/tr&gt;&lt;tr style=&quot;height:21px;&quot;&gt;&lt;td style=&quot;border-right:1px solid #000000;border-bottom:1px solid #000000;border-left:1px solid #000000;overflow:hidden;padding:0px 3px 0px 3px;vertical-align:bottom;text-align:center;&quot;&gt;Q&lt;/td&gt;&lt;td style=&quot;border-right:1px solid #000000;border-bottom:1px solid #000000;overflow:hidden;padding:0px 3px 0px 3px;vertical-align:bottom;text-align:center;&quot;&gt;P&lt;/td&gt;&lt;td style=&quot;border-right:1px solid #000000;border-bottom:1px solid #000000;overflow:hidden;padding:0px 3px 0px 3px;vertical-align:bottom;&quot;&gt;Bocetos de UI/UX digital&lt;/td&gt;&lt;td style=&quot;border-right:1px solid #000000;border-bottom:1px solid #000000;overflow:hidden;padding:0px 3px 0px 3px;vertical-align:bottom;text-align:center;&quot;&gt;21/6/2025&lt;/td&gt;&lt;td style=&quot;border-right:1px solid #000000;border-bottom:1px solid #000000;overflow:hidden;padding:0px 3px 0px 3px;vertical-align:bottom;text-align:center;&quot;&gt;22/6/2025&lt;/td&gt;&lt;td style=&quot;border-right:1px solid #000000;border-bottom:1px solid #000000;overflow:hidden;padding:0px 3px 0px 3px;vertical-align:bottom;text-align:center;&quot;&gt;2&lt;/td&gt;&lt;/tr&gt;&lt;tr style=&quot;height:21px;&quot;&gt;&lt;td style=&quot;border-right:1px solid #000000;border-bottom:1px solid #000000;border-left:1px solid #000000;overflow:hidden;padding:0px 3px 0px 3px;vertical-align:bottom;text-align:center;&quot;&gt;R&lt;/td&gt;&lt;td style=&quot;border-right:1px solid #000000;border-bottom:1px solid #000000;overflow:hidden;padding:0px 3px 0px 3px;vertical-align:bottom;text-align:center;&quot;&gt;P&lt;/td&gt;&lt;td style=&quot;border-right:1px solid #000000;border-bottom:1px solid #000000;overflow:hidden;padding:0px 3px 0px 3px;vertical-align:bottom;&quot;&gt;Diseño del tablero de juego &lt;/td&gt;&lt;td style=&quot;border-right:1px solid #000000;border-bottom:1px solid #000000;overflow:hidden;padding:0px 3px 0px 3px;vertical-align:bottom;text-align:center;&quot;&gt;21/6/2025&lt;/td&gt;&lt;td style=&quot;border-right:1px solid #000000;border-bottom:1px solid #000000;overflow:hidden;padding:0px 3px 0px 3px;vertical-align:bottom;text-align:center;&quot;&gt;22/6/2025&lt;/td&gt;&lt;td style=&quot;border-right:1px solid #000000;border-bottom:1px solid #000000;overflow:hidden;padding:0px 3px 0px 3px;vertical-align:bottom;text-align:center;&quot;&gt;2&lt;/td&gt;&lt;/tr&gt;&lt;tr style=&quot;height:21px;&quot;&gt;&lt;td style=&quot;border-right:1px solid #000000;border-bottom:1px solid #000000;border-left:1px solid #000000;overflow:hidden;padding:0px 3px 0px 3px;vertical-align:bottom;text-align:center;&quot;&gt;S&lt;/td&gt;&lt;td style=&quot;border-right:1px solid #000000;border-bottom:1px solid #000000;overflow:hidden;padding:0px 3px 0px 3px;vertical-align:bottom;text-align:center;&quot;&gt;R&lt;/td&gt;&lt;td style=&quot;border-right:1px solid #000000;border-bottom:1px solid #000000;overflow:hidden;padding:0px 3px 0px 3px;vertical-align:bottom;&quot;&gt;Prototipo de interfaz de usuario&lt;/td&gt;&lt;td style=&quot;border-right:1px solid #000000;border-bottom:1px solid #000000;overflow:hidden;padding:0px 3px 0px 3px;vertical-align:bottom;text-align:center;&quot;&gt;27/6/2025&lt;/td&gt;&lt;td style=&quot;border-right:1px solid #000000;border-bottom:1px solid #000000;overflow:hidden;padding:0px 3px 0px 3px;vertical-align:bottom;text-align:center;&quot;&gt;10/7/2025&lt;/td&gt;&lt;td style=&quot;border-right:1px solid #000000;border-bottom:1px solid #000000;overflow:hidden;padding:0px 3px 0px 3px;vertical-align:bottom;text-align:center;&quot;&gt;14&lt;/td&gt;&lt;/tr&gt;&lt;tr style=&quot;height:21px;&quot;&gt;&lt;td style=&quot;border-right:1px solid #000000;border-bottom:1px solid #000000;border-left:1px solid #000000;overflow:hidden;padding:0px 3px 0px 3px;vertical-align:bottom;text-align:center;&quot;&gt;T&lt;/td&gt;&lt;td style=&quot;border-right:1px solid #000000;border-bottom:1px solid #000000;overflow:hidden;padding:0px 3px 0px 3px;vertical-align:bottom;text-align:center;&quot;&gt;R&lt;/td&gt;&lt;td style=&quot;border-right:1px solid #000000;border-bottom:1px solid #000000;overflow:hidden;padding:0px 3px 0px 3px;vertical-align:bottom;&quot;&gt;Diseño del dado &lt;/td&gt;&lt;td style=&quot;border-right:1px solid #000000;border-bottom:1px solid #000000;overflow:hidden;padding:0px 3px 0px 3px;vertical-align:bottom;text-align:center;&quot;&gt;21/6/2025&lt;/td&gt;&lt;td style=&quot;border-right:1px solid #000000;border-bottom:1px solid #000000;overflow:hidden;padding:0px 3px 0px 3px;vertical-align:bottom;text-align:center;&quot;&gt;22/6/2025&lt;/td&gt;&lt;td style=&quot;border-right:1px solid #000000;border-bottom:1px solid #000000;overflow:hidden;padding:0px 3px 0px 3px;vertical-align:bottom;text-align:center;&quot;&gt;2&lt;/td&gt;&lt;/tr&gt;&lt;tr style=&quot;height:21px;&quot;&gt;&lt;td style=&quot;border-right:1px solid #000000;border-bottom:1px solid #000000;border-left:1px solid #000000;overflow:hidden;padding:0px 3px 0px 3px;vertical-align:bottom;text-align:center;&quot;&gt;U&lt;/td&gt;&lt;td style=&quot;border-right:1px solid #000000;border-bottom:1px solid #000000;overflow:hidden;padding:0px 3px 0px 3px;vertical-align:bottom;text-align:center;&quot;&gt;S&lt;/td&gt;&lt;td style=&quot;border-right:1px solid #000000;border-bottom:1px solid #000000;overflow:hidden;padding:0px 3px 0px 3px;vertical-align:bottom;&quot;&gt;Implementación de diseño responsivo &lt;/td&gt;&lt;td style=&quot;border-right:1px solid #000000;border-bottom:1px solid #000000;overflow:hidden;padding:0px 3px 0px 3px;vertical-align:bottom;text-align:center;&quot;&gt;9/7/2025&lt;/td&gt;&lt;td style=&quot;border-right:1px solid #000000;border-bottom:1px solid #000000;overflow:hidden;padding:0px 3px 0px 3px;vertical-align:bottom;text-align:center;&quot;&gt;11/7/2025&lt;/td&gt;&lt;td style=&quot;border-right:1px solid #000000;border-bottom:1px solid #000000;overflow:hidden;padding:0px 3px 0px 3px;vertical-align:bottom;text-align:center;&quot;&gt;3&lt;/td&gt;&lt;/tr&gt;&lt;tr style=&quot;height:21px;&quot;&gt;&lt;td style=&quot;border-right:1px solid #000000;border-bottom:1px solid #000000;border-left:1px solid #000000;overflow:hidden;padding:0px 3px 0px 3px;vertical-align:bottom;text-align:center;&quot;&gt;V&lt;/td&gt;&lt;td style=&quot;border-right:1px solid #000000;border-bottom:1px solid #000000;overflow:hidden;padding:0px 3px 0px 3px;vertical-align:bottom;text-align:center;&quot;&gt;S&lt;/td&gt;&lt;td style=&quot;border-right:1px solid #000000;border-bottom:1px solid #000000;overflow:hidden;padding:0px 3px 0px 3px;vertical-align:bottom;&quot;&gt;Configuración del entorno de desarrollo&lt;/td&gt;&lt;td style=&quot;border-right:1px solid #000000;border-bottom:1px solid #000000;overflow:hidden;padding:0px 3px 0px 3px;vertical-align:bottom;text-align:center;&quot;&gt;8/7/2025&lt;/td&gt;&lt;td style=&quot;border-right:1px solid #000000;border-bottom:1px solid #000000;overflow:hidden;padding:0px 3px 0px 3px;vertical-align:bottom;text-align:center;&quot;&gt;11/7/2025&lt;/td&gt;&lt;td style=&quot;border-right:1px solid #000000;border-bottom:1px solid #000000;overflow:hidden;padding:0px 3px 0px 3px;vertical-align:bottom;text-align:center;&quot;&gt;4&lt;/td&gt;&lt;/tr&gt;&lt;tr style=&quot;height:21px;&quot;&gt;&lt;td style=&quot;border-right:1px solid #000000;border-bottom:1px solid #000000;border-left:1px solid #000000;overflow:hidden;padding:0px 3px 0px 3px;vertical-align:bottom;text-align:center;&quot;&gt;W&lt;/td&gt;&lt;td style=&quot;border-right:1px solid #000000;border-bottom:1px solid #000000;overflow:hidden;padding:0px 3px 0px 3px;vertical-align:bottom;text-align:center;&quot;&gt;V&lt;/td&gt;&lt;td style=&quot;border-right:1px solid #000000;border-bottom:1px solid #000000;overflow:hidden;padding:0px 3px 0px 3px;vertical-align:bottom;&quot;&gt;Gestión y administración de paquetes del sistema operativo&lt;/td&gt;&lt;td style=&quot;border-right:1px solid #000000;border-bottom:1px solid #000000;overflow:hidden;padding:0px 3px 0px 3px;vertical-align:bottom;text-align:center;&quot;&gt;7/7/2025&lt;/td&gt;&lt;td style=&quot;border-right:1px solid #000000;border-bottom:1px solid #000000;overflow:hidden;padding:0px 3px 0px 3px;vertical-align:bottom;text-align:center;&quot;&gt;7/7/2025&lt;/td&gt;&lt;td style=&quot;border-right:1px solid #000000;border-bottom:1px solid #000000;overflow:hidden;padding:0px 3px 0px 3px;vertical-align:bottom;text-align:center;&quot;&gt;1&lt;/td&gt;&lt;/tr&gt;&lt;tr style=&quot;height:21px;&quot;&gt;&lt;td style=&quot;border-right:1px solid #000000;border-bottom:1px solid #000000;border-left:1px solid #000000;overflow:hidden;padding:0px 3px 0px 3px;vertical-align:bottom;text-align:center;&quot;&gt;X&lt;/td&gt;&lt;td style=&quot;border-right:1px solid #000000;border-bottom:1px solid #000000;overflow:hidden;padding:0px 3px 0px 3px;vertical-align:bottom;text-align:center;&quot;&gt;W&lt;/td&gt;&lt;td style=&quot;border-right:1px solid #000000;border-bottom:1px solid #000000;overflow:hidden;padding:0px 3px 0px 3px;vertical-align:bottom;&quot;&gt;Manual de instalador SO Servidor&lt;/td&gt;&lt;td style=&quot;border-right:1px solid #000000;border-bottom:1px solid #000000;overflow:hidden;padding:0px 3px 0px 3px;vertical-align:bottom;text-align:center;&quot;&gt;28/6/2025&lt;/td&gt;&lt;td style=&quot;border-right:1px solid #000000;border-bottom:1px solid #000000;overflow:hidden;padding:0px 3px 0px 3px;vertical-align:bottom;text-align:center;&quot;&gt;28/6/2025&lt;/td&gt;&lt;td style=&quot;border-right:1px solid #000000;border-bottom:1px solid #000000;overflow:hidden;padding:0px 3px 0px 3px;vertical-align:bottom;text-align:center;&quot;&gt;1&lt;/td&gt;&lt;/tr&gt;&lt;tr style=&quot;height:21px;&quot;&gt;&lt;td style=&quot;border-right:1px solid #000000;border-bottom:1px solid #000000;border-left:1px solid #000000;overflow:hidden;padding:0px 3px 0px 3px;vertical-align:bottom;text-align:center;&quot;&gt;Y&lt;/td&gt;&lt;td style=&quot;border-right:1px solid #000000;border-bottom:1px solid #000000;overflow:hidden;padding:0px 3px 0px 3px;vertical-align:bottom;text-align:center;&quot;&gt;D&lt;/td&gt;&lt;td style=&quot;border-right:1px solid #000000;border-bottom:1px solid #000000;overflow:hidden;padding:0px 3px 0px 3px;vertical-align:bottom;&quot;&gt;Implementación del modelo de desarrollo (Tradicional) &lt;/td&gt;&lt;td style=&quot;border-right:1px solid #000000;border-bottom:1px solid #000000;overflow:hidden;padding:0px 3px 0px 3px;vertical-align:bottom;text-align:center;&quot;&gt;24/6/2025&lt;/td&gt;&lt;td style=&quot;border-right:1px solid #000000;border-bottom:1px solid #000000;overflow:hidden;padding:0px 3px 0px 3px;vertical-align:bottom;text-align:center;&quot;&gt;30/6/2025&lt;/td&gt;&lt;td style=&quot;border-right:1px solid #000000;border-bottom:1px solid #000000;overflow:hidden;padding:0px 3px 0px 3px;vertical-align:bottom;text-align:center;&quot;&gt;7&lt;/td&gt;&lt;/tr&gt;&lt;tr style=&quot;height:21px;&quot;&gt;&lt;td style=&quot;border-right:1px solid #000000;border-bottom:1px solid #000000;border-left:1px solid #000000;overflow:hidden;padding:0px 3px 0px 3px;vertical-align:bottom;text-align:center;&quot;&gt;Z&lt;/td&gt;&lt;td style=&quot;border-right:1px solid #000000;border-bottom:1px solid #000000;overflow:hidden;padding:0px 3px 0px 3px;vertical-align:bottom;text-align:center;&quot;&gt;X&lt;/td&gt;&lt;td style=&quot;border-right:1px solid #000000;border-bottom:1px solid #000000;overflow:hidden;padding:0px 3px 0px 3px;vertical-align:bottom;&quot;&gt;Relevamiento de sistema operativo para el servidor &lt;/td&gt;&lt;td style=&quot;border-right:1px solid #000000;border-bottom:1px solid #000000;overflow:hidden;padding:0px 3px 0px 3px;vertical-align:bottom;text-align:center;&quot;&gt;7/7/2025&lt;/td&gt;&lt;td style=&quot;border-right:1px solid #000000;border-bottom:1px solid #000000;overflow:hidden;padding:0px 3px 0px 3px;vertical-align:bottom;text-align:center;&quot;&gt;8/7/2025&lt;/td&gt;&lt;td style=&quot;border-right:1px solid #000000;border-bottom:1px solid #000000;overflow:hidden;padding:0px 3px 0px 3px;vertical-align:bottom;text-align:center;&quot;&gt;2&lt;/td&gt;&lt;/tr&gt;&lt;/tbody&gt;&lt;/table&gt;" id="Fv-TLhSwu86ZR0lVzaZN-66668537">
          <mxCell style="text;whiteSpace=wrap;html=1;" parent="1" vertex="1">
            <mxGeometry x="-2501" y="-769" width="560" height="680" as="geometry" />
          </mxCell>
        </UserObject>
        <mxCell id="Fv-TLhSwu86ZR0lVzaZN-66668538" value="" style="endArrow=none;dashed=1;html=1;rounded=0;entryX=0.5;entryY=1;entryDx=0;entryDy=0;exitX=0.5;exitY=0;exitDx=0;exitDy=0;" parent="1" source="a40b6437" target="66e3b4fe" edge="1">
          <mxGeometry width="50" height="50" relative="1" as="geometry">
            <mxPoint x="-431" y="1043" as="sourcePoint" />
            <mxPoint x="-381" y="993" as="targetPoint" />
          </mxGeometry>
        </mxCell>
        <mxCell id="Fv-TLhSwu86ZR0lVzaZN-66668539" value="FU = 0" style="edgeLabel;html=1;align=center;verticalAlign=middle;resizable=0;points=[];" parent="Fv-TLhSwu86ZR0lVzaZN-66668538" connectable="0" vertex="1">
          <mxGeometry x="-0.2466" y="-1" relative="1" as="geometry">
            <mxPoint as="offset" />
          </mxGeometry>
        </mxCell>
        <mxCell id="Fv-TLhSwu86ZR0lVzaZN-66668545" value="" style="endArrow=none;dashed=1;html=1;rounded=0;entryX=1;entryY=1;entryDx=0;entryDy=0;exitX=0;exitY=0;exitDx=0;exitDy=0;" parent="1" source="c735d2ee" target="434c6c4c" edge="1">
          <mxGeometry width="50" height="50" relative="1" as="geometry">
            <mxPoint x="-840" y="799" as="sourcePoint" />
            <mxPoint x="-790" y="749" as="targetPoint" />
          </mxGeometry>
        </mxCell>
        <mxCell id="Fv-TLhSwu86ZR0lVzaZN-66668546" value="FT = 0" style="edgeLabel;html=1;align=center;verticalAlign=middle;resizable=0;points=[];" parent="Fv-TLhSwu86ZR0lVzaZN-66668545" connectable="0" vertex="1">
          <mxGeometry x="-0.1008" y="2" relative="1" as="geometry">
            <mxPoint as="offset" />
          </mxGeometry>
        </mxCell>
        <mxCell id="Fv-TLhSwu86ZR0lVzaZN-66668549" value="" style="endArrow=none;dashed=1;html=1;rounded=0;entryX=0.5;entryY=1;entryDx=0;entryDy=0;exitX=0.5;exitY=0;exitDx=0;exitDy=0;strokeColor=light-dark(#FF0000,#FF0000);" parent="1" source="c6145eef" target="e268c06f" edge="1">
          <mxGeometry width="50" height="50" relative="1" as="geometry">
            <mxPoint x="-1012" y="972" as="sourcePoint" />
            <mxPoint x="-962" y="922" as="targetPoint" />
          </mxGeometry>
        </mxCell>
        <mxCell id="Fv-TLhSwu86ZR0lVzaZN-66668550" value="FQ = 0" style="edgeLabel;html=1;align=center;verticalAlign=middle;resizable=0;points=[];" parent="Fv-TLhSwu86ZR0lVzaZN-66668549" connectable="0" vertex="1">
          <mxGeometry x="-0.2086" y="2" relative="1" as="geometry">
            <mxPoint as="offset" />
          </mxGeometry>
        </mxCell>
        <mxCell id="Fv-TLhSwu86ZR0lVzaZN-66668551" value="" style="endArrow=none;dashed=1;html=1;rounded=0;entryX=1;entryY=1;entryDx=0;entryDy=0;exitX=0;exitY=0;exitDx=0;exitDy=0;" parent="1" source="3da8a38b" target="4c62da6e" edge="1">
          <mxGeometry width="50" height="50" relative="1" as="geometry">
            <mxPoint x="-172" y="605" as="sourcePoint" />
            <mxPoint x="-122" y="555" as="targetPoint" />
          </mxGeometry>
        </mxCell>
        <mxCell id="Fv-TLhSwu86ZR0lVzaZN-66668553" value="FO = 0" style="edgeLabel;html=1;align=center;verticalAlign=middle;resizable=0;points=[];" parent="Fv-TLhSwu86ZR0lVzaZN-66668551" connectable="0" vertex="1">
          <mxGeometry x="0.1008" y="-4" relative="1" as="geometry">
            <mxPoint as="offset" />
          </mxGeometry>
        </mxCell>
        <mxCell id="Fv-TLhSwu86ZR0lVzaZN-66668554" value="" style="endArrow=none;dashed=1;html=1;rounded=0;exitX=0.5;exitY=1;exitDx=0;exitDy=0;entryX=0.5;entryY=0;entryDx=0;entryDy=0;" parent="1" source="7493ef86" target="ffbde519" edge="1">
          <mxGeometry width="50" height="50" relative="1" as="geometry">
            <mxPoint x="-1450" y="427" as="sourcePoint" />
            <mxPoint x="-1400" y="377" as="targetPoint" />
          </mxGeometry>
        </mxCell>
        <mxCell id="Fv-TLhSwu86ZR0lVzaZN-66668555" value="FE = 0" style="edgeLabel;html=1;align=center;verticalAlign=middle;resizable=0;points=[];" parent="Fv-TLhSwu86ZR0lVzaZN-66668554" connectable="0" vertex="1">
          <mxGeometry x="-0.1751" y="1" relative="1" as="geometry">
            <mxPoint as="offset" />
          </mxGeometry>
        </mxCell>
        <mxCell id="Fv-TLhSwu86ZR0lVzaZN-66668557" value="" style="endArrow=none;dashed=1;html=1;rounded=0;exitX=0.5;exitY=1;exitDx=0;exitDy=0;entryX=0.5;entryY=0;entryDx=0;entryDy=0;" parent="1" source="ffbde519" target="408cdb30" edge="1">
          <mxGeometry width="50" height="50" relative="1" as="geometry">
            <mxPoint x="-1410" y="120" as="sourcePoint" />
            <mxPoint x="-1400" y="210" as="targetPoint" />
          </mxGeometry>
        </mxCell>
        <mxCell id="Fv-TLhSwu86ZR0lVzaZN-66668558" value="FY = 0" style="edgeLabel;html=1;align=center;verticalAlign=middle;resizable=0;points=[];" parent="Fv-TLhSwu86ZR0lVzaZN-66668557" connectable="0" vertex="1">
          <mxGeometry x="-0.1751" y="1" relative="1" as="geometry">
            <mxPoint as="offset" />
          </mxGeometry>
        </mxCell>
        <mxCell id="Fv-TLhSwu86ZR0lVzaZN-66668559" value="" style="endArrow=none;dashed=1;html=1;rounded=0;exitX=0.5;exitY=1;exitDx=0;exitDy=0;entryX=0.5;entryY=0;entryDx=0;entryDy=0;" parent="1" source="408cdb30" target="544a1524" edge="1">
          <mxGeometry width="50" height="50" relative="1" as="geometry">
            <mxPoint x="-1400" y="270" as="sourcePoint" />
            <mxPoint x="-1402" y="341" as="targetPoint" />
          </mxGeometry>
        </mxCell>
        <mxCell id="Fv-TLhSwu86ZR0lVzaZN-66668562" value="FAA = 0" style="edgeLabel;html=1;align=center;verticalAlign=middle;resizable=0;points=[];" parent="Fv-TLhSwu86ZR0lVzaZN-66668559" connectable="0" vertex="1">
          <mxGeometry x="-0.1919" y="-3" relative="1" as="geometry">
            <mxPoint as="offset" />
          </mxGeometry>
        </mxCell>
        <mxCell id="Fv-TLhSwu86ZR0lVzaZN-66668563" value="" style="endArrow=none;dashed=1;html=1;rounded=0;exitX=1;exitY=0.5;exitDx=0;exitDy=0;entryX=0;entryY=0.5;entryDx=0;entryDy=0;" parent="1" source="ee80a6a2" target="1711f812" edge="1">
          <mxGeometry width="50" height="50" relative="1" as="geometry">
            <mxPoint x="-1825" y="365" as="sourcePoint" />
            <mxPoint x="-1775" y="315" as="targetPoint" />
          </mxGeometry>
        </mxCell>
        <mxCell id="Fv-TLhSwu86ZR0lVzaZN-66668564" value="FK = 0" style="edgeLabel;html=1;align=center;verticalAlign=middle;resizable=0;points=[];" parent="Fv-TLhSwu86ZR0lVzaZN-66668563" connectable="0" vertex="1">
          <mxGeometry x="0.0284" relative="1" as="geometry">
            <mxPoint as="offset" />
          </mxGeometry>
        </mxCell>
        <mxCell id="Fv-TLhSwu86ZR0lVzaZN-66668565" value="" style="endArrow=none;dashed=1;html=1;rounded=0;entryX=0.5;entryY=1;entryDx=0;entryDy=0;exitX=0;exitY=0;exitDx=0;exitDy=0;" parent="1" source="21505091" target="1711f812" edge="1">
          <mxGeometry width="50" height="50" relative="1" as="geometry">
            <mxPoint x="-1707" y="418" as="sourcePoint" />
            <mxPoint x="-1657" y="368" as="targetPoint" />
          </mxGeometry>
        </mxCell>
        <mxCell id="Fv-TLhSwu86ZR0lVzaZN-66668566" value="FAC = 0" style="edgeLabel;html=1;align=center;verticalAlign=middle;resizable=0;points=[];" parent="Fv-TLhSwu86ZR0lVzaZN-66668565" connectable="0" vertex="1">
          <mxGeometry x="0.0015" y="2" relative="1" as="geometry">
            <mxPoint as="offset" />
          </mxGeometry>
        </mxCell>
        <mxCell id="Fv-TLhSwu86ZR0lVzaZN-66668567" value="" style="endArrow=none;dashed=1;html=1;rounded=0;entryX=0.5;entryY=1;entryDx=0;entryDy=0;exitX=0.5;exitY=0;exitDx=0;exitDy=0;" parent="1" source="ede9ca6e" target="7f615a20" edge="1">
          <mxGeometry width="50" height="50" relative="1" as="geometry">
            <mxPoint x="-1998" y="484" as="sourcePoint" />
            <mxPoint x="-1948" y="434" as="targetPoint" />
          </mxGeometry>
        </mxCell>
        <mxCell id="Fv-TLhSwu86ZR0lVzaZN-66668568" value="FF = 0" style="edgeLabel;html=1;align=center;verticalAlign=middle;resizable=0;points=[];" parent="Fv-TLhSwu86ZR0lVzaZN-66668567" connectable="0" vertex="1">
          <mxGeometry x="0.0323" y="2" relative="1" as="geometry">
            <mxPoint y="1" as="offset" />
          </mxGeometry>
        </mxCell>
        <UserObject label="&lt;table xmlns=&quot;http://www.w3.org/1999/xhtml&quot; cellspacing=&quot;0&quot; cellpadding=&quot;0&quot; dir=&quot;ltr&quot; border=&quot;1&quot; style=&quot;table-layout:fixed;font-size:11pt;font-family:Calibri;width:0px;border-collapse:collapse;border:none&quot; data-sheets-root=&quot;1&quot; data-sheets-baot=&quot;1&quot;&gt;&lt;colgroup&gt;&lt;col width=&quot;100&quot;&gt;&lt;col width=&quot;100&quot;&gt;&lt;col width=&quot;100&quot;&gt;&lt;/colgroup&gt;&lt;tbody&gt;&lt;tr style=&quot;height:20px;&quot;&gt;&lt;td style=&quot;overflow:hidden;padding:0px 3px 0px 3px;vertical-align:bottom;&quot;&gt;Nodos&lt;/td&gt;&lt;td style=&quot;overflow:hidden;padding:0px 3px 0px 3px;vertical-align:bottom;&quot;&gt;T1&lt;/td&gt;&lt;td style=&quot;overflow:hidden;padding:0px 3px 0px 3px;vertical-align:bottom;&quot;&gt;T2&lt;/td&gt;&lt;/tr&gt;&lt;tr style=&quot;height:20px;&quot;&gt;&lt;td style=&quot;overflow:hidden;padding:0px 3px 0px 3px;vertical-align:bottom;&quot;&gt;N1&lt;/td&gt;&lt;td style=&quot;overflow:hidden;padding:0px 3px 0px 3px;vertical-align:bottom;text-align:right;&quot;&gt;0&lt;/td&gt;&lt;td style=&quot;overflow:hidden;padding:0px 3px 0px 3px;vertical-align:bottom;text-align:right;&quot;&gt;0&lt;/td&gt;&lt;/tr&gt;&lt;tr style=&quot;height:20px;&quot;&gt;&lt;td style=&quot;overflow:hidden;padding:0px 3px 0px 3px;vertical-align:bottom;&quot;&gt;N2&lt;/td&gt;&lt;td style=&quot;overflow:hidden;padding:0px 3px 0px 3px;vertical-align:bottom;text-align:right;&quot;&gt;1&lt;/td&gt;&lt;td style=&quot;overflow:hidden;padding:0px 3px 0px 3px;vertical-align:bottom;text-align:right;&quot;&gt;1&lt;/td&gt;&lt;/tr&gt;&lt;tr style=&quot;height:20px;&quot;&gt;&lt;td style=&quot;overflow:hidden;padding:0px 3px 0px 3px;vertical-align:bottom;&quot;&gt;N3&lt;/td&gt;&lt;td style=&quot;overflow:hidden;padding:0px 3px 0px 3px;vertical-align:bottom;text-align:right;&quot;&gt;1&lt;/td&gt;&lt;td style=&quot;overflow:hidden;padding:0px 3px 0px 3px;vertical-align:bottom;text-align:right;&quot;&gt;1&lt;/td&gt;&lt;/tr&gt;&lt;tr style=&quot;height:20px;&quot;&gt;&lt;td style=&quot;overflow:hidden;padding:0px 3px 0px 3px;vertical-align:bottom;&quot;&gt;N4&lt;/td&gt;&lt;td style=&quot;overflow:hidden;padding:0px 3px 0px 3px;vertical-align:bottom;text-align:right;&quot;&gt;2&lt;/td&gt;&lt;td style=&quot;overflow:hidden;padding:0px 3px 0px 3px;vertical-align:bottom;text-align:right;&quot;&gt;57&lt;/td&gt;&lt;/tr&gt;&lt;tr style=&quot;height:20px;&quot;&gt;&lt;td style=&quot;overflow:hidden;padding:0px 3px 0px 3px;vertical-align:bottom;&quot;&gt;N5&lt;/td&gt;&lt;td style=&quot;overflow:hidden;padding:0px 3px 0px 3px;vertical-align:bottom;text-align:right;&quot;&gt;3&lt;/td&gt;&lt;td style=&quot;overflow:hidden;padding:0px 3px 0px 3px;vertical-align:bottom;text-align:right;&quot;&gt;58&lt;/td&gt;&lt;/tr&gt;&lt;tr style=&quot;height:20px;&quot;&gt;&lt;td style=&quot;overflow:hidden;padding:0px 3px 0px 3px;vertical-align:bottom;&quot;&gt;N6&lt;/td&gt;&lt;td style=&quot;overflow:hidden;padding:0px 3px 0px 3px;vertical-align:bottom;text-align:right;&quot;&gt;4&lt;/td&gt;&lt;td style=&quot;overflow:hidden;padding:0px 3px 0px 3px;vertical-align:bottom;text-align:right;&quot;&gt;59&lt;/td&gt;&lt;/tr&gt;&lt;tr style=&quot;height:20px;&quot;&gt;&lt;td style=&quot;overflow:hidden;padding:0px 3px 0px 3px;vertical-align:bottom;&quot;&gt;N7&lt;/td&gt;&lt;td style=&quot;overflow:hidden;padding:0px 3px 0px 3px;vertical-align:bottom;text-align:right;&quot;&gt;2&lt;/td&gt;&lt;td style=&quot;overflow:hidden;padding:0px 3px 0px 3px;vertical-align:bottom;text-align:right;&quot;&gt;57&lt;/td&gt;&lt;/tr&gt;&lt;tr style=&quot;height:20px;&quot;&gt;&lt;td style=&quot;overflow:hidden;padding:0px 3px 0px 3px;vertical-align:bottom;&quot;&gt;N8&lt;/td&gt;&lt;td style=&quot;overflow:hidden;padding:0px 3px 0px 3px;vertical-align:bottom;text-align:right;&quot;&gt;2&lt;/td&gt;&lt;td style=&quot;overflow:hidden;padding:0px 3px 0px 3px;vertical-align:bottom;text-align:right;&quot;&gt;15&lt;/td&gt;&lt;/tr&gt;&lt;tr style=&quot;height:20px;&quot;&gt;&lt;td style=&quot;overflow:hidden;padding:0px 3px 0px 3px;vertical-align:bottom;&quot;&gt;N9&lt;/td&gt;&lt;td style=&quot;overflow:hidden;padding:0px 3px 0px 3px;vertical-align:bottom;text-align:right;&quot;&gt;15&lt;/td&gt;&lt;td style=&quot;overflow:hidden;padding:0px 3px 0px 3px;vertical-align:bottom;text-align:right;&quot;&gt;15&lt;/td&gt;&lt;/tr&gt;&lt;tr style=&quot;height:20px;&quot;&gt;&lt;td style=&quot;overflow:hidden;padding:0px 3px 0px 3px;vertical-align:bottom;&quot;&gt;N10&lt;/td&gt;&lt;td style=&quot;overflow:hidden;padding:0px 3px 0px 3px;vertical-align:bottom;text-align:right;&quot;&gt;16&lt;/td&gt;&lt;td style=&quot;overflow:hidden;padding:0px 3px 0px 3px;vertical-align:bottom;text-align:right;&quot;&gt;16&lt;/td&gt;&lt;/tr&gt;&lt;tr style=&quot;height:20px;&quot;&gt;&lt;td style=&quot;overflow:hidden;padding:0px 3px 0px 3px;vertical-align:bottom;&quot;&gt;N11&lt;/td&gt;&lt;td style=&quot;overflow:hidden;padding:0px 3px 0px 3px;vertical-align:bottom;text-align:right;&quot;&gt;4&lt;/td&gt;&lt;td style=&quot;overflow:hidden;padding:0px 3px 0px 3px;vertical-align:bottom;text-align:right;&quot;&gt;59&lt;/td&gt;&lt;/tr&gt;&lt;tr style=&quot;height:20px;&quot;&gt;&lt;td style=&quot;overflow:hidden;padding:0px 3px 0px 3px;vertical-align:bottom;&quot;&gt;N12&lt;/td&gt;&lt;td style=&quot;overflow:hidden;padding:0px 3px 0px 3px;vertical-align:bottom;text-align:right;&quot;&gt;3&lt;/td&gt;&lt;td style=&quot;overflow:hidden;padding:0px 3px 0px 3px;vertical-align:bottom;text-align:right;&quot;&gt;58&lt;/td&gt;&lt;/tr&gt;&lt;tr style=&quot;height:20px;&quot;&gt;&lt;td style=&quot;overflow:hidden;padding:0px 3px 0px 3px;vertical-align:bottom;&quot;&gt;N13&lt;/td&gt;&lt;td style=&quot;overflow:hidden;padding:0px 3px 0px 3px;vertical-align:bottom;text-align:right;&quot;&gt;17&lt;/td&gt;&lt;td style=&quot;overflow:hidden;padding:0px 3px 0px 3px;vertical-align:bottom;text-align:right;&quot;&gt;17&lt;/td&gt;&lt;/tr&gt;&lt;tr style=&quot;height:20px;&quot;&gt;&lt;td style=&quot;overflow:hidden;padding:0px 3px 0px 3px;vertical-align:bottom;&quot;&gt;N14&lt;/td&gt;&lt;td style=&quot;overflow:hidden;padding:0px 3px 0px 3px;vertical-align:bottom;text-align:right;&quot;&gt;5&lt;/td&gt;&lt;td style=&quot;overflow:hidden;padding:0px 3px 0px 3px;vertical-align:bottom;text-align:right;&quot;&gt;60&lt;/td&gt;&lt;/tr&gt;&lt;tr style=&quot;height:20px;&quot;&gt;&lt;td style=&quot;overflow:hidden;padding:0px 3px 0px 3px;vertical-align:bottom;&quot;&gt;N15&lt;/td&gt;&lt;td style=&quot;overflow:hidden;padding:0px 3px 0px 3px;vertical-align:bottom;text-align:right;&quot;&gt;6&lt;/td&gt;&lt;td style=&quot;overflow:hidden;padding:0px 3px 0px 3px;vertical-align:bottom;text-align:right;&quot;&gt;61&lt;/td&gt;&lt;/tr&gt;&lt;tr style=&quot;height:20px;&quot;&gt;&lt;td style=&quot;overflow:hidden;padding:0px 3px 0px 3px;vertical-align:bottom;&quot;&gt;N16&lt;/td&gt;&lt;td style=&quot;overflow:hidden;padding:0px 3px 0px 3px;vertical-align:bottom;text-align:right;&quot;&gt;7&lt;/td&gt;&lt;td style=&quot;overflow:hidden;padding:0px 3px 0px 3px;vertical-align:bottom;text-align:right;&quot;&gt;62&lt;/td&gt;&lt;/tr&gt;&lt;tr style=&quot;height:20px;&quot;&gt;&lt;td style=&quot;overflow:hidden;padding:0px 3px 0px 3px;vertical-align:bottom;&quot;&gt;N17&lt;/td&gt;&lt;td style=&quot;overflow:hidden;padding:0px 3px 0px 3px;vertical-align:bottom;text-align:right;&quot;&gt;31&lt;/td&gt;&lt;td style=&quot;overflow:hidden;padding:0px 3px 0px 3px;vertical-align:bottom;text-align:right;&quot;&gt;31&lt;/td&gt;&lt;/tr&gt;&lt;tr style=&quot;height:20px;&quot;&gt;&lt;td style=&quot;overflow:hidden;padding:0px 3px 0px 3px;vertical-align:bottom;&quot;&gt;N18&lt;/td&gt;&lt;td style=&quot;overflow:hidden;padding:0px 3px 0px 3px;vertical-align:bottom;text-align:right;&quot;&gt;33&lt;/td&gt;&lt;td style=&quot;overflow:hidden;padding:0px 3px 0px 3px;vertical-align:bottom;text-align:right;&quot;&gt;33&lt;/td&gt;&lt;/tr&gt;&lt;tr style=&quot;height:20px;&quot;&gt;&lt;td style=&quot;overflow:hidden;padding:0px 3px 0px 3px;vertical-align:bottom;&quot;&gt;N19&lt;/td&gt;&lt;td style=&quot;overflow:hidden;padding:0px 3px 0px 3px;vertical-align:bottom;text-align:right;&quot;&gt;33&lt;/td&gt;&lt;td style=&quot;overflow:hidden;padding:0px 3px 0px 3px;vertical-align:bottom;text-align:right;&quot;&gt;33&lt;/td&gt;&lt;/tr&gt;&lt;tr style=&quot;height:20px;&quot;&gt;&lt;td style=&quot;overflow:hidden;padding:0px 3px 0px 3px;vertical-align:bottom;&quot;&gt;N20&lt;/td&gt;&lt;td style=&quot;overflow:hidden;padding:0px 3px 0px 3px;vertical-align:bottom;text-align:right;&quot;&gt;47&lt;/td&gt;&lt;td style=&quot;overflow:hidden;padding:0px 3px 0px 3px;vertical-align:bottom;text-align:right;&quot;&gt;47&lt;/td&gt;&lt;/tr&gt;&lt;tr style=&quot;height:20px;&quot;&gt;&lt;td style=&quot;overflow:hidden;padding:0px 3px 0px 3px;vertical-align:bottom;&quot;&gt;N21&lt;/td&gt;&lt;td style=&quot;overflow:hidden;padding:0px 3px 0px 3px;vertical-align:bottom;text-align:right;&quot;&gt;35&lt;/td&gt;&lt;td style=&quot;overflow:hidden;padding:0px 3px 0px 3px;vertical-align:bottom;text-align:right;&quot;&gt;47&lt;/td&gt;&lt;/tr&gt;&lt;tr style=&quot;height:20px;&quot;&gt;&lt;td style=&quot;overflow:hidden;padding:0px 3px 0px 3px;vertical-align:bottom;&quot;&gt;N22&lt;/td&gt;&lt;td style=&quot;overflow:hidden;padding:0px 3px 0px 3px;vertical-align:bottom;text-align:right;&quot;&gt;50&lt;/td&gt;&lt;td style=&quot;overflow:hidden;padding:0px 3px 0px 3px;vertical-align:bottom;text-align:right;&quot;&gt;51&lt;/td&gt;&lt;/tr&gt;&lt;tr style=&quot;height:20px;&quot;&gt;&lt;td style=&quot;overflow:hidden;padding:0px 3px 0px 3px;vertical-align:bottom;&quot;&gt;N23&lt;/td&gt;&lt;td style=&quot;overflow:hidden;padding:0px 3px 0px 3px;vertical-align:bottom;text-align:right;&quot;&gt;51&lt;/td&gt;&lt;td style=&quot;overflow:hidden;padding:0px 3px 0px 3px;vertical-align:bottom;text-align:right;&quot;&gt;51&lt;/td&gt;&lt;/tr&gt;&lt;tr style=&quot;height:20px;&quot;&gt;&lt;td style=&quot;overflow:hidden;padding:0px 3px 0px 3px;vertical-align:bottom;&quot;&gt;N24&lt;/td&gt;&lt;td style=&quot;overflow:hidden;padding:0px 3px 0px 3px;vertical-align:bottom;text-align:right;&quot;&gt;52&lt;/td&gt;&lt;td style=&quot;overflow:hidden;padding:0px 3px 0px 3px;vertical-align:bottom;text-align:right;&quot;&gt;52&lt;/td&gt;&lt;/tr&gt;&lt;tr style=&quot;height:20px;&quot;&gt;&lt;td style=&quot;overflow:hidden;padding:0px 3px 0px 3px;vertical-align:bottom;&quot;&gt;N25&lt;/td&gt;&lt;td style=&quot;overflow:hidden;padding:0px 3px 0px 3px;vertical-align:bottom;text-align:right;&quot;&gt;53&lt;/td&gt;&lt;td style=&quot;overflow:hidden;padding:0px 3px 0px 3px;vertical-align:bottom;text-align:right;&quot;&gt;53&lt;/td&gt;&lt;/tr&gt;&lt;tr style=&quot;height:20px;&quot;&gt;&lt;td style=&quot;overflow:hidden;padding:0px 3px 0px 3px;vertical-align:bottom;&quot;&gt;N26&lt;/td&gt;&lt;td style=&quot;overflow:hidden;padding:0px 3px 0px 3px;vertical-align:bottom;text-align:right;&quot;&gt;10&lt;/td&gt;&lt;td style=&quot;overflow:hidden;padding:0px 3px 0px 3px;vertical-align:bottom;text-align:right;&quot;&gt;59&lt;/td&gt;&lt;/tr&gt;&lt;tr style=&quot;height:20px;&quot;&gt;&lt;td style=&quot;overflow:hidden;padding:0px 3px 0px 3px;vertical-align:bottom;&quot;&gt;N27&lt;/td&gt;&lt;td style=&quot;overflow:hidden;padding:0px 3px 0px 3px;vertical-align:bottom;text-align:right;&quot;&gt;55&lt;/td&gt;&lt;td style=&quot;overflow:hidden;padding:0px 3px 0px 3px;vertical-align:bottom;text-align:right;&quot;&gt;55&lt;/td&gt;&lt;/tr&gt;&lt;tr style=&quot;height:20px;&quot;&gt;&lt;td style=&quot;overflow:hidden;padding:0px 3px 0px 3px;vertical-align:bottom;&quot;&gt;N28&lt;/td&gt;&lt;td style=&quot;overflow:hidden;padding:0px 3px 0px 3px;vertical-align:bottom;text-align:right;&quot;&gt;4&lt;/td&gt;&lt;td style=&quot;overflow:hidden;padding:0px 3px 0px 3px;vertical-align:bottom;text-align:right;&quot;&gt;59&lt;/td&gt;&lt;/tr&gt;&lt;tr style=&quot;height:20px;&quot;&gt;&lt;td style=&quot;overflow:hidden;padding:0px 3px 0px 3px;vertical-align:bottom;&quot;&gt;N29&lt;/td&gt;&lt;td style=&quot;overflow:hidden;padding:0px 3px 0px 3px;vertical-align:bottom;text-align:right;&quot;&gt;3&lt;/td&gt;&lt;td style=&quot;overflow:hidden;padding:0px 3px 0px 3px;vertical-align:bottom;text-align:right;&quot;&gt;48&lt;/td&gt;&lt;/tr&gt;&lt;tr style=&quot;height:20px;&quot;&gt;&lt;td style=&quot;overflow:hidden;padding:0px 3px 0px 3px;vertical-align:bottom;&quot;&gt;N30&lt;/td&gt;&lt;td style=&quot;overflow:hidden;padding:0px 3px 0px 3px;vertical-align:bottom;text-align:right;&quot;&gt;7&lt;/td&gt;&lt;td style=&quot;overflow:hidden;padding:0px 3px 0px 3px;vertical-align:bottom;text-align:right;&quot;&gt;52&lt;/td&gt;&lt;/tr&gt;&lt;tr style=&quot;height:20px;&quot;&gt;&lt;td style=&quot;overflow:hidden;padding:0px 3px 0px 3px;vertical-align:bottom;&quot;&gt;N31&lt;/td&gt;&lt;td style=&quot;overflow:hidden;padding:0px 3px 0px 3px;vertical-align:bottom;text-align:right;&quot;&gt;60&lt;/td&gt;&lt;td style=&quot;overflow:hidden;padding:0px 3px 0px 3px;vertical-align:bottom;text-align:right;&quot;&gt;60&lt;/td&gt;&lt;/tr&gt;&lt;tr style=&quot;height:20px;&quot;&gt;&lt;td style=&quot;overflow:hidden;padding:0px 3px 0px 3px;vertical-align:bottom;&quot;&gt;N32&lt;/td&gt;&lt;td style=&quot;overflow:hidden;padding:0px 3px 0px 3px;vertical-align:bottom;text-align:right;&quot;&gt;61&lt;/td&gt;&lt;td style=&quot;overflow:hidden;padding:0px 3px 0px 3px;vertical-align:bottom;text-align:right;&quot;&gt;61&lt;/td&gt;&lt;/tr&gt;&lt;tr style=&quot;height:20px;&quot;&gt;&lt;td style=&quot;overflow:hidden;padding:0px 3px 0px 3px;vertical-align:bottom;&quot;&gt;N33&lt;/td&gt;&lt;td style=&quot;overflow:hidden;padding:0px 3px 0px 3px;vertical-align:bottom;text-align:right;&quot;&gt;62&lt;/td&gt;&lt;td style=&quot;overflow:hidden;padding:0px 3px 0px 3px;vertical-align:bottom;text-align:right;&quot;&gt;62&lt;/td&gt;&lt;/tr&gt;&lt;/tbody&gt;&lt;/table&gt;" link="&lt;table xmlns=&quot;http://www.w3.org/1999/xhtml&quot; cellspacing=&quot;0&quot; cellpadding=&quot;0&quot; dir=&quot;ltr&quot; border=&quot;1&quot; style=&quot;table-layout:fixed;font-size:11pt;font-family:Calibri;width:0px;border-collapse:collapse;border:none&quot; data-sheets-root=&quot;1&quot; data-sheets-baot=&quot;1&quot;&gt;&lt;colgroup&gt;&lt;col width=&quot;100&quot;&gt;&lt;col width=&quot;100&quot;&gt;&lt;col width=&quot;100&quot;&gt;&lt;/colgroup&gt;&lt;tbody&gt;&lt;tr style=&quot;height:20px;&quot;&gt;&lt;td style=&quot;overflow:hidden;padding:0px 3px 0px 3px;vertical-align:bottom;&quot;&gt;Nodos&lt;/td&gt;&lt;td style=&quot;overflow:hidden;padding:0px 3px 0px 3px;vertical-align:bottom;&quot;&gt;T1&lt;/td&gt;&lt;td style=&quot;overflow:hidden;padding:0px 3px 0px 3px;vertical-align:bottom;&quot;&gt;T2&lt;/td&gt;&lt;/tr&gt;&lt;tr style=&quot;height:20px;&quot;&gt;&lt;td style=&quot;overflow:hidden;padding:0px 3px 0px 3px;vertical-align:bottom;&quot;&gt;N1&lt;/td&gt;&lt;td style=&quot;overflow:hidden;padding:0px 3px 0px 3px;vertical-align:bottom;text-align:right;&quot;&gt;0&lt;/td&gt;&lt;td style=&quot;overflow:hidden;padding:0px 3px 0px 3px;vertical-align:bottom;text-align:right;&quot;&gt;0&lt;/td&gt;&lt;/tr&gt;&lt;tr style=&quot;height:20px;&quot;&gt;&lt;td style=&quot;overflow:hidden;padding:0px 3px 0px 3px;vertical-align:bottom;&quot;&gt;N2&lt;/td&gt;&lt;td style=&quot;overflow:hidden;padding:0px 3px 0px 3px;vertical-align:bottom;text-align:right;&quot;&gt;1&lt;/td&gt;&lt;td style=&quot;overflow:hidden;padding:0px 3px 0px 3px;vertical-align:bottom;text-align:right;&quot;&gt;1&lt;/td&gt;&lt;/tr&gt;&lt;tr style=&quot;height:20px;&quot;&gt;&lt;td style=&quot;overflow:hidden;padding:0px 3px 0px 3px;vertical-align:bottom;&quot;&gt;N3&lt;/td&gt;&lt;td style=&quot;overflow:hidden;padding:0px 3px 0px 3px;vertical-align:bottom;text-align:right;&quot;&gt;1&lt;/td&gt;&lt;td style=&quot;overflow:hidden;padding:0px 3px 0px 3px;vertical-align:bottom;text-align:right;&quot;&gt;1&lt;/td&gt;&lt;/tr&gt;&lt;tr style=&quot;height:20px;&quot;&gt;&lt;td style=&quot;overflow:hidden;padding:0px 3px 0px 3px;vertical-align:bottom;&quot;&gt;N4&lt;/td&gt;&lt;td style=&quot;overflow:hidden;padding:0px 3px 0px 3px;vertical-align:bottom;text-align:right;&quot;&gt;2&lt;/td&gt;&lt;td style=&quot;overflow:hidden;padding:0px 3px 0px 3px;vertical-align:bottom;text-align:right;&quot;&gt;57&lt;/td&gt;&lt;/tr&gt;&lt;tr style=&quot;height:20px;&quot;&gt;&lt;td style=&quot;overflow:hidden;padding:0px 3px 0px 3px;vertical-align:bottom;&quot;&gt;N5&lt;/td&gt;&lt;td style=&quot;overflow:hidden;padding:0px 3px 0px 3px;vertical-align:bottom;text-align:right;&quot;&gt;3&lt;/td&gt;&lt;td style=&quot;overflow:hidden;padding:0px 3px 0px 3px;vertical-align:bottom;text-align:right;&quot;&gt;58&lt;/td&gt;&lt;/tr&gt;&lt;tr style=&quot;height:20px;&quot;&gt;&lt;td style=&quot;overflow:hidden;padding:0px 3px 0px 3px;vertical-align:bottom;&quot;&gt;N6&lt;/td&gt;&lt;td style=&quot;overflow:hidden;padding:0px 3px 0px 3px;vertical-align:bottom;text-align:right;&quot;&gt;4&lt;/td&gt;&lt;td style=&quot;overflow:hidden;padding:0px 3px 0px 3px;vertical-align:bottom;text-align:right;&quot;&gt;59&lt;/td&gt;&lt;/tr&gt;&lt;tr style=&quot;height:20px;&quot;&gt;&lt;td style=&quot;overflow:hidden;padding:0px 3px 0px 3px;vertical-align:bottom;&quot;&gt;N7&lt;/td&gt;&lt;td style=&quot;overflow:hidden;padding:0px 3px 0px 3px;vertical-align:bottom;text-align:right;&quot;&gt;2&lt;/td&gt;&lt;td style=&quot;overflow:hidden;padding:0px 3px 0px 3px;vertical-align:bottom;text-align:right;&quot;&gt;57&lt;/td&gt;&lt;/tr&gt;&lt;tr style=&quot;height:20px;&quot;&gt;&lt;td style=&quot;overflow:hidden;padding:0px 3px 0px 3px;vertical-align:bottom;&quot;&gt;N8&lt;/td&gt;&lt;td style=&quot;overflow:hidden;padding:0px 3px 0px 3px;vertical-align:bottom;text-align:right;&quot;&gt;2&lt;/td&gt;&lt;td style=&quot;overflow:hidden;padding:0px 3px 0px 3px;vertical-align:bottom;text-align:right;&quot;&gt;15&lt;/td&gt;&lt;/tr&gt;&lt;tr style=&quot;height:20px;&quot;&gt;&lt;td style=&quot;overflow:hidden;padding:0px 3px 0px 3px;vertical-align:bottom;&quot;&gt;N9&lt;/td&gt;&lt;td style=&quot;overflow:hidden;padding:0px 3px 0px 3px;vertical-align:bottom;text-align:right;&quot;&gt;15&lt;/td&gt;&lt;td style=&quot;overflow:hidden;padding:0px 3px 0px 3px;vertical-align:bottom;text-align:right;&quot;&gt;15&lt;/td&gt;&lt;/tr&gt;&lt;tr style=&quot;height:20px;&quot;&gt;&lt;td style=&quot;overflow:hidden;padding:0px 3px 0px 3px;vertical-align:bottom;&quot;&gt;N10&lt;/td&gt;&lt;td style=&quot;overflow:hidden;padding:0px 3px 0px 3px;vertical-align:bottom;text-align:right;&quot;&gt;16&lt;/td&gt;&lt;td style=&quot;overflow:hidden;padding:0px 3px 0px 3px;vertical-align:bottom;text-align:right;&quot;&gt;16&lt;/td&gt;&lt;/tr&gt;&lt;tr style=&quot;height:20px;&quot;&gt;&lt;td style=&quot;overflow:hidden;padding:0px 3px 0px 3px;vertical-align:bottom;&quot;&gt;N11&lt;/td&gt;&lt;td style=&quot;overflow:hidden;padding:0px 3px 0px 3px;vertical-align:bottom;text-align:right;&quot;&gt;4&lt;/td&gt;&lt;td style=&quot;overflow:hidden;padding:0px 3px 0px 3px;vertical-align:bottom;text-align:right;&quot;&gt;59&lt;/td&gt;&lt;/tr&gt;&lt;tr style=&quot;height:20px;&quot;&gt;&lt;td style=&quot;overflow:hidden;padding:0px 3px 0px 3px;vertical-align:bottom;&quot;&gt;N12&lt;/td&gt;&lt;td style=&quot;overflow:hidden;padding:0px 3px 0px 3px;vertical-align:bottom;text-align:right;&quot;&gt;3&lt;/td&gt;&lt;td style=&quot;overflow:hidden;padding:0px 3px 0px 3px;vertical-align:bottom;text-align:right;&quot;&gt;58&lt;/td&gt;&lt;/tr&gt;&lt;tr style=&quot;height:20px;&quot;&gt;&lt;td style=&quot;overflow:hidden;padding:0px 3px 0px 3px;vertical-align:bottom;&quot;&gt;N13&lt;/td&gt;&lt;td style=&quot;overflow:hidden;padding:0px 3px 0px 3px;vertical-align:bottom;text-align:right;&quot;&gt;17&lt;/td&gt;&lt;td style=&quot;overflow:hidden;padding:0px 3px 0px 3px;vertical-align:bottom;text-align:right;&quot;&gt;17&lt;/td&gt;&lt;/tr&gt;&lt;tr style=&quot;height:20px;&quot;&gt;&lt;td style=&quot;overflow:hidden;padding:0px 3px 0px 3px;vertical-align:bottom;&quot;&gt;N14&lt;/td&gt;&lt;td style=&quot;overflow:hidden;padding:0px 3px 0px 3px;vertical-align:bottom;text-align:right;&quot;&gt;5&lt;/td&gt;&lt;td style=&quot;overflow:hidden;padding:0px 3px 0px 3px;vertical-align:bottom;text-align:right;&quot;&gt;60&lt;/td&gt;&lt;/tr&gt;&lt;tr style=&quot;height:20px;&quot;&gt;&lt;td style=&quot;overflow:hidden;padding:0px 3px 0px 3px;vertical-align:bottom;&quot;&gt;N15&lt;/td&gt;&lt;td style=&quot;overflow:hidden;padding:0px 3px 0px 3px;vertical-align:bottom;text-align:right;&quot;&gt;6&lt;/td&gt;&lt;td style=&quot;overflow:hidden;padding:0px 3px 0px 3px;vertical-align:bottom;text-align:right;&quot;&gt;61&lt;/td&gt;&lt;/tr&gt;&lt;tr style=&quot;height:20px;&quot;&gt;&lt;td style=&quot;overflow:hidden;padding:0px 3px 0px 3px;vertical-align:bottom;&quot;&gt;N16&lt;/td&gt;&lt;td style=&quot;overflow:hidden;padding:0px 3px 0px 3px;vertical-align:bottom;text-align:right;&quot;&gt;7&lt;/td&gt;&lt;td style=&quot;overflow:hidden;padding:0px 3px 0px 3px;vertical-align:bottom;text-align:right;&quot;&gt;62&lt;/td&gt;&lt;/tr&gt;&lt;tr style=&quot;height:20px;&quot;&gt;&lt;td style=&quot;overflow:hidden;padding:0px 3px 0px 3px;vertical-align:bottom;&quot;&gt;N17&lt;/td&gt;&lt;td style=&quot;overflow:hidden;padding:0px 3px 0px 3px;vertical-align:bottom;text-align:right;&quot;&gt;31&lt;/td&gt;&lt;td style=&quot;overflow:hidden;padding:0px 3px 0px 3px;vertical-align:bottom;text-align:right;&quot;&gt;31&lt;/td&gt;&lt;/tr&gt;&lt;tr style=&quot;height:20px;&quot;&gt;&lt;td style=&quot;overflow:hidden;padding:0px 3px 0px 3px;vertical-align:bottom;&quot;&gt;N18&lt;/td&gt;&lt;td style=&quot;overflow:hidden;padding:0px 3px 0px 3px;vertical-align:bottom;text-align:right;&quot;&gt;33&lt;/td&gt;&lt;td style=&quot;overflow:hidden;padding:0px 3px 0px 3px;vertical-align:bottom;text-align:right;&quot;&gt;33&lt;/td&gt;&lt;/tr&gt;&lt;tr style=&quot;height:20px;&quot;&gt;&lt;td style=&quot;overflow:hidden;padding:0px 3px 0px 3px;vertical-align:bottom;&quot;&gt;N19&lt;/td&gt;&lt;td style=&quot;overflow:hidden;padding:0px 3px 0px 3px;vertical-align:bottom;text-align:right;&quot;&gt;33&lt;/td&gt;&lt;td style=&quot;overflow:hidden;padding:0px 3px 0px 3px;vertical-align:bottom;text-align:right;&quot;&gt;33&lt;/td&gt;&lt;/tr&gt;&lt;tr style=&quot;height:20px;&quot;&gt;&lt;td style=&quot;overflow:hidden;padding:0px 3px 0px 3px;vertical-align:bottom;&quot;&gt;N20&lt;/td&gt;&lt;td style=&quot;overflow:hidden;padding:0px 3px 0px 3px;vertical-align:bottom;text-align:right;&quot;&gt;47&lt;/td&gt;&lt;td style=&quot;overflow:hidden;padding:0px 3px 0px 3px;vertical-align:bottom;text-align:right;&quot;&gt;47&lt;/td&gt;&lt;/tr&gt;&lt;tr style=&quot;height:20px;&quot;&gt;&lt;td style=&quot;overflow:hidden;padding:0px 3px 0px 3px;vertical-align:bottom;&quot;&gt;N21&lt;/td&gt;&lt;td style=&quot;overflow:hidden;padding:0px 3px 0px 3px;vertical-align:bottom;text-align:right;&quot;&gt;35&lt;/td&gt;&lt;td style=&quot;overflow:hidden;padding:0px 3px 0px 3px;vertical-align:bottom;text-align:right;&quot;&gt;47&lt;/td&gt;&lt;/tr&gt;&lt;tr style=&quot;height:20px;&quot;&gt;&lt;td style=&quot;overflow:hidden;padding:0px 3px 0px 3px;vertical-align:bottom;&quot;&gt;N22&lt;/td&gt;&lt;td style=&quot;overflow:hidden;padding:0px 3px 0px 3px;vertical-align:bottom;text-align:right;&quot;&gt;50&lt;/td&gt;&lt;td style=&quot;overflow:hidden;padding:0px 3px 0px 3px;vertical-align:bottom;text-align:right;&quot;&gt;51&lt;/td&gt;&lt;/tr&gt;&lt;tr style=&quot;height:20px;&quot;&gt;&lt;td style=&quot;overflow:hidden;padding:0px 3px 0px 3px;vertical-align:bottom;&quot;&gt;N23&lt;/td&gt;&lt;td style=&quot;overflow:hidden;padding:0px 3px 0px 3px;vertical-align:bottom;text-align:right;&quot;&gt;51&lt;/td&gt;&lt;td style=&quot;overflow:hidden;padding:0px 3px 0px 3px;vertical-align:bottom;text-align:right;&quot;&gt;51&lt;/td&gt;&lt;/tr&gt;&lt;tr style=&quot;height:20px;&quot;&gt;&lt;td style=&quot;overflow:hidden;padding:0px 3px 0px 3px;vertical-align:bottom;&quot;&gt;N24&lt;/td&gt;&lt;td style=&quot;overflow:hidden;padding:0px 3px 0px 3px;vertical-align:bottom;text-align:right;&quot;&gt;52&lt;/td&gt;&lt;td style=&quot;overflow:hidden;padding:0px 3px 0px 3px;vertical-align:bottom;text-align:right;&quot;&gt;52&lt;/td&gt;&lt;/tr&gt;&lt;tr style=&quot;height:20px;&quot;&gt;&lt;td style=&quot;overflow:hidden;padding:0px 3px 0px 3px;vertical-align:bottom;&quot;&gt;N25&lt;/td&gt;&lt;td style=&quot;overflow:hidden;padding:0px 3px 0px 3px;vertical-align:bottom;text-align:right;&quot;&gt;53&lt;/td&gt;&lt;td style=&quot;overflow:hidden;padding:0px 3px 0px 3px;vertical-align:bottom;text-align:right;&quot;&gt;53&lt;/td&gt;&lt;/tr&gt;&lt;tr style=&quot;height:20px;&quot;&gt;&lt;td style=&quot;overflow:hidden;padding:0px 3px 0px 3px;vertical-align:bottom;&quot;&gt;N26&lt;/td&gt;&lt;td style=&quot;overflow:hidden;padding:0px 3px 0px 3px;vertical-align:bottom;text-align:right;&quot;&gt;10&lt;/td&gt;&lt;td style=&quot;overflow:hidden;padding:0px 3px 0px 3px;vertical-align:bottom;text-align:right;&quot;&gt;59&lt;/td&gt;&lt;/tr&gt;&lt;tr style=&quot;height:20px;&quot;&gt;&lt;td style=&quot;overflow:hidden;padding:0px 3px 0px 3px;vertical-align:bottom;&quot;&gt;N27&lt;/td&gt;&lt;td style=&quot;overflow:hidden;padding:0px 3px 0px 3px;vertical-align:bottom;text-align:right;&quot;&gt;55&lt;/td&gt;&lt;td style=&quot;overflow:hidden;padding:0px 3px 0px 3px;vertical-align:bottom;text-align:right;&quot;&gt;55&lt;/td&gt;&lt;/tr&gt;&lt;tr style=&quot;height:20px;&quot;&gt;&lt;td style=&quot;overflow:hidden;padding:0px 3px 0px 3px;vertical-align:bottom;&quot;&gt;N28&lt;/td&gt;&lt;td style=&quot;overflow:hidden;padding:0px 3px 0px 3px;vertical-align:bottom;text-align:right;&quot;&gt;4&lt;/td&gt;&lt;td style=&quot;overflow:hidden;padding:0px 3px 0px 3px;vertical-align:bottom;text-align:right;&quot;&gt;59&lt;/td&gt;&lt;/tr&gt;&lt;tr style=&quot;height:20px;&quot;&gt;&lt;td style=&quot;overflow:hidden;padding:0px 3px 0px 3px;vertical-align:bottom;&quot;&gt;N29&lt;/td&gt;&lt;td style=&quot;overflow:hidden;padding:0px 3px 0px 3px;vertical-align:bottom;text-align:right;&quot;&gt;3&lt;/td&gt;&lt;td style=&quot;overflow:hidden;padding:0px 3px 0px 3px;vertical-align:bottom;text-align:right;&quot;&gt;48&lt;/td&gt;&lt;/tr&gt;&lt;tr style=&quot;height:20px;&quot;&gt;&lt;td style=&quot;overflow:hidden;padding:0px 3px 0px 3px;vertical-align:bottom;&quot;&gt;N30&lt;/td&gt;&lt;td style=&quot;overflow:hidden;padding:0px 3px 0px 3px;vertical-align:bottom;text-align:right;&quot;&gt;7&lt;/td&gt;&lt;td style=&quot;overflow:hidden;padding:0px 3px 0px 3px;vertical-align:bottom;text-align:right;&quot;&gt;52&lt;/td&gt;&lt;/tr&gt;&lt;tr style=&quot;height:20px;&quot;&gt;&lt;td style=&quot;overflow:hidden;padding:0px 3px 0px 3px;vertical-align:bottom;&quot;&gt;N31&lt;/td&gt;&lt;td style=&quot;overflow:hidden;padding:0px 3px 0px 3px;vertical-align:bottom;text-align:right;&quot;&gt;60&lt;/td&gt;&lt;td style=&quot;overflow:hidden;padding:0px 3px 0px 3px;vertical-align:bottom;text-align:right;&quot;&gt;60&lt;/td&gt;&lt;/tr&gt;&lt;tr style=&quot;height:20px;&quot;&gt;&lt;td style=&quot;overflow:hidden;padding:0px 3px 0px 3px;vertical-align:bottom;&quot;&gt;N32&lt;/td&gt;&lt;td style=&quot;overflow:hidden;padding:0px 3px 0px 3px;vertical-align:bottom;text-align:right;&quot;&gt;61&lt;/td&gt;&lt;td style=&quot;overflow:hidden;padding:0px 3px 0px 3px;vertical-align:bottom;text-align:right;&quot;&gt;61&lt;/td&gt;&lt;/tr&gt;&lt;tr style=&quot;height:20px;&quot;&gt;&lt;td style=&quot;overflow:hidden;padding:0px 3px 0px 3px;vertical-align:bottom;&quot;&gt;N33&lt;/td&gt;&lt;td style=&quot;overflow:hidden;padding:0px 3px 0px 3px;vertical-align:bottom;text-align:right;&quot;&gt;62&lt;/td&gt;&lt;td style=&quot;overflow:hidden;padding:0px 3px 0px 3px;vertical-align:bottom;text-align:right;&quot;&gt;62&lt;/td&gt;&lt;/tr&gt;&lt;/tbody&gt;&lt;/table&gt;" id="Fv-TLhSwu86ZR0lVzaZN-66668569">
          <mxCell style="text;whiteSpace=wrap;html=1;" parent="1" vertex="1">
            <mxGeometry x="-1571.997029506138" y="-767.0024841308593" width="329" height="703" as="geometry" />
          </mxCell>
        </UserObject>
      </root>
    </mxGraphModel>
  </diagram>
</mxfile>
